<?xml version="1.0" encoding="UTF-8" standalone="no"?>
<!-- Created with Inkscape (http://www.inkscape.org/) -->

<svg
   xmlns:dc="http://purl.org/dc/elements/1.1/"
   xmlns:cc="http://creativecommons.org/ns#"
   xmlns:rdf="http://www.w3.org/1999/02/22-rdf-syntax-ns#"
   xmlns:svg="http://www.w3.org/2000/svg"
   xmlns="http://www.w3.org/2000/svg"
   xmlns:sodipodi="http://sodipodi.sourceforge.net/DTD/sodipodi-0.dtd"
   xmlns:inkscape="http://www.inkscape.org/namespaces/inkscape"
   width="876.90009"
   height="1008.7485"
   viewBox="0 0 232.01315 266.89806"
   version="1.1"
   id="svg8"
   inkscape:version="0.92.2 5c3e80d, 2017-08-06"
   sodipodi:docname="logo3.svg">
  <defs
     id="defs2" />
  <sodipodi:namedview
     id="base"
     pagecolor="#ffffff"
     bordercolor="#666666"
     borderopacity="1.0"
     inkscape:pageopacity="0.0"
     inkscape:pageshadow="2"
     inkscape:zoom="0.5"
     inkscape:cx="755.36484"
     inkscape:cy="214.10381"
     inkscape:document-units="mm"
     inkscape:current-layer="layer1"
     showgrid="false"
     inkscape:lockguides="true"
     fit-margin-top="0"
     fit-margin-left="0"
     fit-margin-right="0"
     fit-margin-bottom="0"
     units="px"
     inkscape:window-width="1913"
     inkscape:window-height="1032"
     inkscape:window-x="1374"
     inkscape:window-y="3"
     inkscape:window-maximized="0" />
  <metadata
     id="metadata5">
    <rdf:RDF>
      <cc:Work
         rdf:about="">
        <dc:format>image/svg+xml</dc:format>
        <dc:type
           rdf:resource="http://purl.org/dc/dcmitype/StillImage" />
        <dc:title></dc:title>
      </cc:Work>
    </rdf:RDF>
  </metadata>
  <g
     inkscape:label="レイヤー 1"
     inkscape:groupmode="layer"
     id="layer1"
     transform="translate(-14.908829,224.88353)">
    <g
       id="g1106"
       style="stroke:none">
      <path
         sodipodi:nodetypes="cccccccccccc"
         inkscape:connector-curvature="0"
         id="path899"
         d="m -111.31918,72.347445 v -13.78629 h 44.983099 c -0.44627,15.092584 0.895623,32.61194 -7.106335,37.450389 -7.608854,7.325896 -21.832444,7.289196 -36.313374,7.888036 l -1.42127,-15.065451 c 9.04752,-0.120026 19.037978,0.218693 24.161543,-2.416126 l -23.024523,0.07099 0.0711,-12.151833 27.146198,-0.284271 v -1.847643 z"
         style="fill:none;stroke:none;stroke-width:0.26458332;stroke-linecap:butt;stroke-linejoin:miter;stroke-miterlimit:4;stroke-dasharray:none;stroke-opacity:1" />
      <path
         sodipodi:nodetypes="ccccccccsccsccccccc"
         inkscape:connector-curvature="0"
         id="path901"
         d="m -58.94549,58.703278 h 44.91204 v 13.004601 h -23.166658 v 2.131885 h 23.095593 v 13.430993 h -23.237719 c 0.498338,1.360441 0.620755,2.161665 5.18291,2.14121 6.812813,-0.03038 14.608096,0.009 19.191822,-1.004215 l 0.07105,14.781178 c -6.061715,-0.63806 -23.762743,2.99811 -34.188034,-1.12557 -4.561012,-1.80408 -6.886018,-6.900178 -6.175956,-14.72155 h -5.827195 V 73.697658 h 5.898263 v -1.989809 h -5.756131 z"
         style="fill:none;stroke:none;stroke-width:0.26458332;stroke-linecap:butt;stroke-linejoin:miter;stroke-miterlimit:4;stroke-dasharray:none;stroke-opacity:1" />
      <path
         sodipodi:nodetypes="ccccccccccccccc"
         inkscape:connector-curvature="0"
         id="path903"
         d="m -4.5820244,58.561155 -0.071083,33.399778 c 0.026773,5.242565 1.9293239,6.034012 4.40592579,8.172277 3.53269841,2.48254 6.52026981,2.79208 13.43097561,3.4821 l 25.938125,-0.28428 0.07108,-17.4816 c -5.282333,1.018714 -10.080235,1.643058 -15.562872,1.137025 -2.858915,-0.08393 -5.775358,0.04873 -8.456539,-0.923806 -0.98595,-0.473756 -0.911242,-0.947511 -1.208081,-1.421267 l 0.07108,-3.624233 24.943239,-4.761259 -3.411036,-16.131391 -21.674329,4.26383 v -5.756146 z"
         style="fill:none;stroke:none;stroke-width:0.26458332;stroke-linecap:butt;stroke-linejoin:miter;stroke-miterlimit:4;stroke-dasharray:none;stroke-opacity:1" />
      <path
         inkscape:connector-curvature="0"
         id="path905"
         d="M 49.994635,58.490087 V 71.99212 h 41.500991 v -4.832311 l -5.756127,1.918726 -3.837423,-8.882923 4.548059,-1.563399 z"
         style="fill:none;stroke:none;stroke-width:0.26458332;stroke-linecap:butt;stroke-linejoin:miter;stroke-miterlimit:4;stroke-dasharray:none;stroke-opacity:1" />
      <path
         inkscape:connector-curvature="0"
         id="path907"
         d="m 83.820791,61.119419 3.126786,-1.065942 2.771468,6.182525 -3.126787,1.065942 z"
         style="fill:none;stroke:none;stroke-width:0.26458332;stroke-linecap:butt;stroke-linejoin:miter;stroke-miterlimit:4;stroke-dasharray:none;stroke-opacity:1" />
      <path
         inkscape:connector-curvature="0"
         id="path911"
         d="m 91.353502,65.454301 3.126786,-0.923837 -2.700403,-6.182504 -3.339977,0.923816 z"
         style="fill:none;stroke:none;stroke-width:0.26458332;stroke-linecap:butt;stroke-linejoin:miter;stroke-miterlimit:4;stroke-dasharray:none;stroke-opacity:1" />
      <path
         sodipodi:nodetypes="ccccccccc"
         inkscape:connector-curvature="0"
         id="path913"
         d="m 47.578476,74.337224 v 13.35991 h 14.852245 c -0.675528,5.409969 -1.197977,7.906262 -5.471877,14.567986 l 18.405407,1.70551 c 1.874175,-4.76126 3.851154,-10.162054 4.903368,-16.202444 H 93.84072 V 74.337224 Z"
         style="fill:none;stroke:none;stroke-width:0.26458332;stroke-linecap:butt;stroke-linejoin:miter;stroke-miterlimit:4;stroke-dasharray:none;stroke-opacity:1" />
      <path
         sodipodi:nodetypes="ccccccccccccccccc"
         inkscape:connector-curvature="0"
         id="path917"
         d="m 104.64235,58.06371 c -0.49715,6.186514 -2.0865,12.190986 -3.69529,18.19221 h 1.42126 v 27.85685 h 12.00971 v -9.522493 h 32.7602 V 86.34692 H 114.30697 V 75.118925 c 0.85793,-3.562447 1.27988,-7.342864 1.77659,-11.08589 v 21.034754 h 29.98873 V 58.987534 h -29.06492 l 0.28427,-0.923824 z"
         style="fill:none;stroke:none;stroke-width:0.26458332;stroke-linecap:butt;stroke-linejoin:miter;stroke-miterlimit:4;stroke-dasharray:none;stroke-opacity:1" />
      <path
         inkscape:connector-curvature="0"
         id="path919"
         d="m 127.31156,66.733432 v 1.421266 h 7.17738 v -1.350183 z"
         style="fill:none;stroke:none;stroke-width:0.26458332;stroke-linecap:butt;stroke-linejoin:miter;stroke-miterlimit:4;stroke-dasharray:none;stroke-opacity:1" />
      <path
         style="fill:none;stroke:none;stroke-width:0.26458332;stroke-linecap:butt;stroke-linejoin:miter;stroke-miterlimit:4;stroke-dasharray:none;stroke-opacity:1"
         d="m 127.31156,71.707879 v 1.421267 h 7.17738 v -1.350184 z"
         id="path921"
         inkscape:connector-curvature="0" />
      <path
         inkscape:connector-curvature="0"
         id="path923"
         d="m 127.31156,76.895515 v 1.421267 h 7.17738 v -1.350184 z"
         style="fill:none;stroke:none;stroke-width:0.26458332;stroke-linecap:butt;stroke-linejoin:miter;stroke-miterlimit:4;stroke-dasharray:none;stroke-opacity:1" />
      <path
         sodipodi:nodetypes="ccccc"
         inkscape:connector-curvature="0"
         id="path925"
         d="m 116.50994,95.016654 c -1.02395,2.935786 -1.3391,5.446246 -1.42128,7.816976 l 13.99949,1.49232 c 0.29119,-3.29595 0.80892,-5.911336 1.27913,-8.669731 z"
         style="fill:none;stroke:none;stroke-width:0.26458332;stroke-linecap:butt;stroke-linejoin:miter;stroke-miterlimit:4;stroke-dasharray:none;stroke-opacity:1" />
      <path
         sodipodi:nodetypes="ccccc"
         inkscape:connector-curvature="0"
         id="path927"
         d="m 131.18451,95.691746 c 0.0602,2.969658 0.60458,5.818174 1.42126,8.598684 l 15.06545,-0.88831 c -1.05129,-2.63121 -2.18802,-5.205477 -2.41616,-8.385466 z"
         style="fill:none;stroke:none;stroke-width:0.26458332;stroke-linecap:butt;stroke-linejoin:miter;stroke-miterlimit:4;stroke-dasharray:none;stroke-opacity:1" />
      <path
         sodipodi:nodetypes="ccccc"
         inkscape:connector-curvature="0"
         id="path929"
         d="m 154.73493,58.987534 c 0.79902,3.346912 1.14836,6.734704 1.21872,10.147855 l 10.44633,-0.621787 -1.4426,-10.471205 z"
         style="fill:none;stroke:none;stroke-width:0.26458332;stroke-linecap:butt;stroke-linejoin:miter;stroke-miterlimit:4;stroke-dasharray:none;stroke-opacity:1" />
      <path
         sodipodi:nodetypes="ccccc"
         inkscape:connector-curvature="0"
         id="path931"
         d="m 156.32673,69.682574 c -0.0572,3.967946 -0.80649,7.854462 -1.98978,11.689929 3.53594,0.201246 7.09252,0.350751 10.37169,1.193849 1.099,-4.117542 1.68445,-8.210628 1.39284,-12.261961 -3.25826,-0.207262 -6.51649,-0.414555 -9.77475,-0.621817 z"
         style="fill:none;stroke:none;stroke-width:0.26458332;stroke-linecap:butt;stroke-linejoin:miter;stroke-miterlimit:4;stroke-dasharray:none;stroke-opacity:1" />
      <path
         sodipodi:nodetypes="ccccccccccccccccccccccccccc"
         inkscape:connector-curvature="0"
         id="path935"
         d="m 166.73021,59.24374 v 22.582063 h 3.44712 v 1.195925 H 154.9819 v 8.230843 h 10.76341 c -2.79428,1.967759 -7.14742,1.708576 -11.18552,1.899444 l 0.49247,10.833775 c 5.74216,-0.51891 10.99402,-1.52815 15.05471,-3.72853 v 4.00991 h 14.98437 v -4.22093 c 4.76764,2.79338 9.92342,3.25775 15.05471,3.86919 l 0.42208,-10.693054 c -4.31771,-0.18049 -8.75661,-0.264117 -11.25585,-1.899444 h 10.9041 v -8.512257 l -15.12507,0.140782 0.0704,-1.406978 h 3.1657 V 59.103108 h -4.99478 l 0.49247,-1.125567 h -12.87391 l -0.70349,1.195928 z"
         style="fill:none;stroke:none;stroke-width:0.26458332;stroke-linecap:butt;stroke-linejoin:miter;stroke-miterlimit:4;stroke-dasharray:none;stroke-opacity:1" />
      <path
         sodipodi:nodetypes="ccccc"
         inkscape:connector-curvature="0"
         id="path941"
         d="m 175.89317,66.551227 v 2.057734 h 3.29763 v -2.04892 z"
         style="fill:none;stroke:none;stroke-width:0.26458332;stroke-linecap:butt;stroke-linejoin:miter;stroke-miterlimit:4;stroke-dasharray:none;stroke-opacity:1" />
      <path
         sodipodi:nodetypes="ccccc"
         inkscape:connector-curvature="0"
         id="path943"
         d="m 175.93844,74.028977 v 1.778366 h 3.19608 v -1.797016 c -1.04413,0.01805 -2.14172,0.03399 -3.19608,0.01805 z"
         style="fill:none;stroke:none;stroke-width:0.26458332;stroke-linecap:butt;stroke-linejoin:miter;stroke-miterlimit:4;stroke-dasharray:none;stroke-opacity:1" />
      <path
         sodipodi:nodetypes="ccccc"
         inkscape:connector-curvature="0"
         id="path945"
         d="m 190.01577,58.118143 c 0.10017,3.505113 -0.53401,6.928672 -1.26629,10.341312 3.5471,0.22832 7.05089,0.499927 10.41167,0.914542 0.71191,-3.36099 1.40475,-6.726462 1.33665,-10.270979 -3.13791,-0.422006 -6.46024,-0.795473 -10.48203,-0.984875 z"
         style="fill:none;stroke:none;stroke-width:0.26458332;stroke-linecap:butt;stroke-linejoin:miter;stroke-miterlimit:4;stroke-dasharray:none;stroke-opacity:1" />
      <path
         sodipodi:nodetypes="ccccc"
         inkscape:connector-curvature="0"
         id="path949"
         d="m 188.83741,70.358899 c 0.56024,3.906821 0.90521,7.89435 1.09043,11.941772 3.59595,-0.389767 7.1556,-0.688688 10.65789,-0.84421 -0.17658,-4.032893 -0.53446,-8.05249 -1.82909,-11.818649 -3.33253,0.109798 -6.63348,0.377495 -9.91923,0.721087 z"
         style="fill:none;stroke:none;stroke-width:0.26458332;stroke-linecap:butt;stroke-linejoin:miter;stroke-miterlimit:4;stroke-dasharray:none;stroke-opacity:1" />
      <path
         inkscape:connector-curvature="0"
         id="path953"
         d="m 213.23099,58.118143 v 1.40698 h -5.13551 v 9.145385 h 0.63316 l 0.5628,2.743624 h -1.75872 v 8.512257 H 231.8735 V 71.27344 h -1.82908 l 0.49243,-2.602932 h 1.05527 v -9.145385 h -4.92445 v -1.477332 z"
         style="fill:none;stroke:none;stroke-width:0.26458332;stroke-linecap:butt;stroke-linejoin:miter;stroke-miterlimit:4;stroke-dasharray:none;stroke-opacity:1" />
      <path
         sodipodi:nodetypes="ccccc"
         inkscape:connector-curvature="0"
         id="path955"
         d="m 218.64787,68.670508 0.28127,2.743624 h 1.61803 l 0.35174,-2.813955 z"
         style="fill:none;stroke:none;stroke-width:0.26458332;stroke-linecap:butt;stroke-linejoin:miter;stroke-miterlimit:4;stroke-dasharray:none;stroke-opacity:1" />
      <path
         inkscape:connector-curvature="0"
         id="path957"
         d="m 208.44723,81.474058 v 22.793112 h 10.69308 l -0.25569,-0.95409 h 12.70744 V 81.333367 Z"
         style="fill:none;stroke:none;stroke-width:0.26458332;stroke-linecap:butt;stroke-linejoin:miter;stroke-miterlimit:4;stroke-dasharray:none;stroke-opacity:1" />
      <path
         inkscape:connector-curvature="0"
         id="path959"
         d="m 218.92926,89.986285 v 4.150632 h 2.18083 v -4.220963 z"
         style="fill:none;stroke:none;stroke-width:0.26458332;stroke-linecap:butt;stroke-linejoin:miter;stroke-miterlimit:4;stroke-dasharray:none;stroke-opacity:1" />
      <path
         sodipodi:nodetypes="cccccccccccc"
         inkscape:connector-curvature="0"
         id="path961"
         d="m 232.92873,59.032687 v 45.164123 h 11.39658 v -1.89941 c 2.28085,-0.0782 4.49257,-0.32915 6.40176,-1.3365 1.99239,-1.015282 2.33033,-2.503269 3.09537,-3.869216 0.71795,-2.527818 0.77054,-3.381415 0.63315,-6.683173 -0.91207,-4.64373 -0.53407,-3.3646 -1.75875,-7.316332 l -1.47734,-5.205805 2.53257,-8.652949 V 58.962446 Z"
         style="fill:none;stroke:none;stroke-width:0.26458332;stroke-linecap:butt;stroke-linejoin:miter;stroke-miterlimit:4;stroke-dasharray:none;stroke-opacity:1" />
      <path
         sodipodi:nodetypes="cccc"
         inkscape:connector-curvature="0"
         id="path963"
         d="m 242.70728,68.459455 v 8.160512 l 1.82905,-8.160512 z"
         style="fill:none;stroke:none;stroke-width:0.26458332;stroke-linecap:butt;stroke-linejoin:miter;stroke-miterlimit:4;stroke-dasharray:none;stroke-opacity:1" />
      <path
         sodipodi:nodetypes="ccccc"
         inkscape:connector-curvature="0"
         id="path965"
         d="m 242.56658,80.067081 v 10.904106 c 0.89884,0.183498 1.72741,-0.652831 2.25116,-1.406977 0.0659,-1.248418 0.11852,-2.44347 0,-2.954647 z"
         style="fill:none;stroke:none;stroke-width:0.26458332;stroke-linecap:butt;stroke-linejoin:miter;stroke-miterlimit:4;stroke-dasharray:none;stroke-opacity:1" />
      <path
         inkscape:connector-curvature="0"
         id="path967"
         d="m 262.33466,59.032687 v 45.234483 h 15.82856 v -2.18082 h 12.31112 v 2.11046 h 15.6175 V 58.962326 Z"
         style="fill:none;stroke:none;stroke-width:0.26458332;stroke-linecap:butt;stroke-linejoin:miter;stroke-miterlimit:4;stroke-dasharray:none;stroke-opacity:1" />
      <path
         sodipodi:nodetypes="ccccc"
         inkscape:connector-curvature="0"
         id="path969"
         d="m 278.09289,72.04729 v 2.462211 l 12.31108,0.07039 -9e-5,-2.462241 z"
         style="fill:none;stroke:none;stroke-width:0.26458332;stroke-linecap:butt;stroke-linejoin:miter;stroke-miterlimit:4;stroke-dasharray:none;stroke-opacity:1" />
      <path
         inkscape:connector-curvature="0"
         id="path971"
         d="m 278.09289,86.820585 v 2.462211 h 12.24075 v -2.532542 z"
         style="fill:none;stroke:none;stroke-width:0.26458332;stroke-linecap:butt;stroke-linejoin:miter;stroke-miterlimit:4;stroke-dasharray:none;stroke-opacity:1" />
      <path
         sodipodi:nodetypes="ccccccccccccccccccccccccccccccccccccc"
         inkscape:connector-curvature="0"
         id="path973"
         d="m 319.59888,58.188494 v 1.055246 h -4.7134 v 8.934332 h 4.64304 v 1.829083 h -5.2762 v 9.075023 h 1.75876 l 0.63312,2.321519 h -2.11046 v 8.934362 h 4.92442 v 1.899414 h -4.57268 v 9.075057 h 4.85409 v 2.88428 h 12.0297 v -2.95464 h 4.22094 v -9.28608 h -4.22094 v -1.5477 h 4.64304 l 0.0526,-8.969497 -1.63562,-0.01805 0.45727,-2.268756 h 1.05523 V 69.72529 h -4.64304 v -1.54767 h 4.50235 v -9.075053 h -4.36166 v -0.896953 z"
         style="fill:none;stroke:none;stroke-width:0.26458332;stroke-linecap:butt;stroke-linejoin:miter;stroke-miterlimit:4;stroke-dasharray:none;stroke-opacity:1" />
      <path
         inkscape:connector-curvature="0"
         id="path975"
         d="m 324.51238,79.084254 0.3482,2.039534 h 1.64155 l 0.34823,-2.039534 z"
         style="fill:none;stroke:none;stroke-width:0.26458332;stroke-linecap:butt;stroke-linejoin:miter;stroke-miterlimit:4;stroke-dasharray:none;stroke-opacity:1" />
      <path
         sodipodi:nodetypes="cccccccccccccc"
         inkscape:connector-curvature="0"
         id="path977"
         d="m 337.60824,58.82164 v 45.44553 h 10.34134 V 85.202555 c 0.55341,2.50977 0.98075,5.099737 1.87396,7.393251 l -1.75641,0.989745 c 0.7028,3.464982 1.21972,7.029079 1.57081,10.681619 1.73544,-0.58608 3.25913,-1.3839 4.50234,-2.46221 l 3.44712,2.25116 -0.0439,-27.427369 -0.8046,-0.105285 0.63752,-0.677108 v -17.23553 z"
         style="fill:none;stroke:none;stroke-width:0.26458332;stroke-linecap:butt;stroke-linejoin:miter;stroke-miterlimit:4;stroke-dasharray:none;stroke-opacity:1" />
      <path
         sodipodi:nodetypes="cccc"
         inkscape:connector-curvature="0"
         id="path979"
         d="m 353.15541,84.850811 h 1.75872 c -0.003,1.568335 -0.41323,3.020345 -0.74701,4.494164 -0.36874,-1.490184 -0.93918,-2.92992 -1.01171,-4.494164 z"
         style="fill:none;stroke:none;stroke-width:0.26458332;stroke-linecap:butt;stroke-linejoin:miter;stroke-miterlimit:4;stroke-dasharray:none;stroke-opacity:1" />
      <path
         sodipodi:nodetypes="cccccc"
         inkscape:connector-curvature="0"
         id="path981"
         d="m 347.93715,67.797178 0.012,8.611737 h 1.89942 c -0.59426,-2.109624 -0.84024,-4.482011 -1.17887,-6.815323 1.47914,-0.08814 1.94439,-0.551697 2.51552,-1.767265 z"
         style="fill:none;stroke:none;stroke-width:0.26458332;stroke-linecap:butt;stroke-linejoin:miter;stroke-miterlimit:4;stroke-dasharray:none;stroke-opacity:1" />
    </g>
    <g
       id="g1090"
       transform="translate(-86.254167,-62.970833)">
      <g
         transform="matrix(2.3566829,0,0,2.3566829,113.79811,-185.3893)"
         id="g986">
        <g
           id="g949"
           transform="translate(105.97049,-48.773906)">
          <path
             inkscape:connector-curvature="0"
             id="path1108"
             d="m -110.08303,96.620273 c -0.32258,-3.779123 -0.47038,-6.987257 -0.32845,-7.129187 0.14193,-0.141933 4.35506,-0.426905 9.36251,-0.633272 8.550019,-0.352362 12.667319,-0.975905 13.840495,-2.096064 0.301535,-0.287906 -4.092528,-0.479991 -10.980209,-0.479991 H -109.6716 v -5.820833 -5.820834 h 13.49375 13.49375 v -1.322916 -1.322917 h -14.022917 -14.022913 v -6.614583 -6.614583 h 21.960413 21.960416 l -5.29e-4,7.540625 c -5.29e-4,9.746834 -0.794768,17.954336 -2.167363,22.39828 -0.878195,2.84326 -1.60446,4.030922 -3.684498,6.025243 -6.096537,5.845309 -14.115205,7.950979 -32.821619,8.618869 l -4.0135,0.14329 z"
             style="fill:none;fill-opacity:0;stroke:none;stroke-width:0.52916664;stroke-miterlimit:4;stroke-dasharray:none;stroke-opacity:1" />
          <path
             inkscape:connector-curvature="0"
             id="path1110"
             d="m -110.08303,96.620273 c -0.32258,-3.779123 -0.47038,-6.987257 -0.32845,-7.129187 0.14193,-0.141933 4.35506,-0.426905 9.36251,-0.633272 8.550019,-0.352362 12.667319,-0.975905 13.840495,-2.096064 0.301535,-0.287906 -4.092528,-0.479991 -10.980209,-0.479991 H -109.6716 v -5.820833 -5.820834 h 13.49375 13.49375 v -1.322916 -1.322917 h -14.022917 -14.022913 v -6.614583 -6.614583 h 21.960413 21.960416 l -5.29e-4,7.540625 c -5.29e-4,9.746834 -0.794768,17.954336 -2.167363,22.39828 -0.878195,2.84326 -1.60446,4.030922 -3.684498,6.025243 -6.096537,5.845309 -14.115205,7.950979 -32.821619,8.618869 l -4.0135,0.14329 z"
             style="fill:none;fill-opacity:0;stroke:none;stroke-width:0.52916664;stroke-miterlimit:4;stroke-dasharray:none;stroke-opacity:1" />
          <path
             inkscape:connector-curvature="0"
             id="path1112"
             d="m -110.08303,96.620273 c -0.32258,-3.779123 -0.47038,-6.987257 -0.32845,-7.129187 0.14193,-0.141933 4.35506,-0.426905 9.36251,-0.633272 8.550019,-0.352362 12.667319,-0.975905 13.840495,-2.096064 0.301535,-0.287906 -4.092528,-0.479991 -10.980209,-0.479991 H -109.6716 v -5.820833 -5.820834 h 13.49375 13.49375 v -1.322916 -1.322917 h -14.022917 -14.022913 v -6.614583 -6.614583 h 21.960413 21.960416 l -5.29e-4,7.540625 c -5.29e-4,9.746834 -0.794768,17.954336 -2.167363,22.39828 -0.878195,2.84326 -1.60446,4.030922 -3.684498,6.025243 -6.096537,5.845309 -14.115205,7.950979 -32.821619,8.618869 l -4.0135,0.14329 z"
             style="fill:none;fill-opacity:0;stroke:none;stroke-width:0.52916664;stroke-miterlimit:4;stroke-dasharray:none;stroke-opacity:1" />
          <path
             inkscape:connector-curvature="0"
             id="path1114"
             d="m -109.62925,103.21594 c -0.001,-0.43752 -1.02312,-11.465913 -1.2219,-13.189755 l -0.11326,-0.982216 3.80201,-0.0041 c 7.757837,-0.0084 13.82078,-0.470583 17.068212,-1.301136 1.70905,-0.437103 3.321434,-1.113621 3.18403,-1.335945 -0.05719,-0.09253 -5.114745,-0.165135 -11.503427,-0.165135 h -11.401365 v -5.775269 -5.775269 l 0.70158,-0.115964 c 0.38587,-0.06378 3.69763,-0.116891 7.35946,-0.118023 3.661836,-0.0011 9.44989,-0.05777 12.862349,-0.125862 l 6.204466,-0.123804 V 73.09432 71.985179 l -14.218775,0.06364 -14.21877,0.06364 3e-5,-6.688421 4e-5,-6.688418 h 22.26355 22.263552 l -0.0055,2.946646 c -0.01122,5.980708 -0.363543,16.311653 -0.648327,19.010625 -0.859602,8.146658 -2.514574,12.254896 -6.026362,14.959581 -0.558096,0.429834 -1.53544,1.18028 -2.171872,1.667663 -4.095956,3.136695 -10.422493,4.895695 -20.333734,5.653495 -3.503448,0.26787 -11.256167,0.66327 -13.004897,0.66327 -0.74563,0 -0.83982,-0.0471 -0.84106,-0.42095 z"
             style="fill:none;fill-opacity:0;stroke:none;stroke-width:0.18708867;stroke-miterlimit:4;stroke-dasharray:none;stroke-opacity:1" />
          <path
             inkscape:connector-curvature="0"
             id="path1116"
             d="m -109.62925,103.21594 c -0.001,-0.43752 -1.02312,-11.465913 -1.2219,-13.189755 l -0.11326,-0.982216 3.80201,-0.0041 c 7.757837,-0.0084 13.82078,-0.470583 17.068212,-1.301136 1.70905,-0.437103 3.321434,-1.113621 3.18403,-1.335945 -0.05719,-0.09253 -5.114745,-0.165135 -11.503427,-0.165135 h -11.401365 v -5.775269 -5.775269 l 0.70158,-0.115964 c 0.38587,-0.06378 3.69763,-0.116891 7.35946,-0.118023 3.661836,-0.0011 9.44989,-0.05777 12.862349,-0.125862 l 6.204466,-0.123804 V 73.09432 71.985179 l -14.218775,0.06364 -14.21877,0.06364 3e-5,-6.688421 4e-5,-6.688418 h 22.26355 22.263552 l -0.0055,2.946646 c -0.01122,5.980708 -0.363543,16.311653 -0.648327,19.010625 -0.859602,8.146658 -2.514574,12.254896 -6.026362,14.959581 -0.558096,0.429834 -1.53544,1.18028 -2.171872,1.667663 -4.095956,3.136695 -10.422493,4.895695 -20.333734,5.653495 -3.503448,0.26787 -11.256167,0.66327 -13.004897,0.66327 -0.74563,0 -0.83982,-0.0471 -0.84106,-0.42095 z"
             style="fill:#0a1edc;fill-opacity:1;stroke:none;stroke-width:0.18708867;stroke-miterlimit:4;stroke-dasharray:none;stroke-opacity:1" />
          <path
             inkscape:connector-curvature="0"
             id="path1118"
             d="m -37.598725,103.71691 c -0.360146,-0.0406 -1.538806,-0.16891 -2.619243,-0.28509 -2.154857,-0.23173 -4.945388,-0.87564 -6.548101,-1.51097 -2.924043,-1.1591 -4.894935,-3.534388 -5.825609,-7.020916 -0.290769,-1.08929 -0.414121,-2.254081 -0.486413,-4.593116 l -0.09685,-3.133733 h -2.875946 -2.875944 v -6.64165 -6.641648 h 2.993416 2.993419 v -1.216075 -1.216075 h -2.899873 -2.899876 v -6.267472 -6.267471 h 22.263553 22.26355 v 6.267471 6.267472 H -25.81214 -37.411638 v 1.309618 1.309622 h 11.505954 11.505953 v 6.454558 6.45456 h -11.599498 c -7.904537,0 -11.599496,0.06197 -11.599496,0.194543 0,0.56738 0.793115,1.656358 1.440606,1.978004 0.635987,0.315928 1.272884,0.36 6.04294,0.418131 5.612084,0.06839 12.477824,-0.210301 15.154182,-0.615137 0.874639,-0.132303 1.653396,-0.205002 1.73057,-0.16156 0.07717,0.04344 0.140317,3.231142 0.140317,7.083771 v 7.004783 l -1.637026,0.002 c -0.900365,0.001 -3.910153,0.17307 -6.68842,0.38244 -4.617008,0.34793 -14.605565,0.62209 -16.183169,0.44417 z"
             style="fill:#0a1edc;fill-opacity:1;stroke:none;stroke-width:0.18708867;stroke-miterlimit:4;stroke-dasharray:none;stroke-opacity:1" />
        </g>
        <g
           id="g956"
           transform="translate(-0.89325229)">
          <path
             inkscape:connector-curvature="0"
             id="path1120"
             d="m 11.512049,103.23693 c -3.1868297,-0.36311 -5.858389,-0.78859 -7.0839057,-1.1282 -1.8678227,-0.51759 -3.97962122,-1.67029 -5.6123891,-3.06345 -1.7213215,-1.46871 -2.2646238,-2.16702 -2.780628,-3.57396 -0.3662902,-0.998728 -0.4087768,-1.55729 -0.4817748,-6.333805 -0.044032,-2.881167 -0.018225,-10.900253 0.057348,-17.820195 l 0.137406,-12.581713 h 4.71800201 c 2.59490109,0 6.62588029,0.05552 8.95773169,0.123386 l 4.2397299,0.123389 v 2.776487 c 0,2.520024 0.03024,2.776371 0.327405,2.775236 0.180073,-7.94e-4 5.034621,-0.92718 10.787888,-2.058869 5.753263,-1.131689 10.508521,-2.009576 10.56724,-1.95086 0.103151,0.103153 3.394348,15.480194 3.327062,15.544625 -0.01831,0.01752 -5.581904,1.091002 -12.363584,2.385523 -6.781678,1.294519 -12.352041,2.375591 -12.378581,2.40238 -0.16741,0.168976 -0.120766,4.038462 0.05248,4.353843 0.753279,1.371272 2.428317,1.735016 9.22161,2.002531 5.918596,0.233071 8.79743,0.08914 13.236524,-0.66176 l 2.478924,-0.419328 v 8.450429 8.450431 l -5.098167,0.11082 c -9.048713,0.19669 -20.964605,0.2464 -22.310323,0.0931 z"
             style="fill:#0a1edc;fill-opacity:1;stroke:none;stroke-width:0.18708867;stroke-miterlimit:4;stroke-dasharray:none;stroke-opacity:1" />
          <path
             inkscape:connector-curvature="0"
             id="path1122"
             d="m 50.145859,65.283709 v -6.548102 l 14.92032,0.02133 c 8.206176,0.01172 16.007762,0.07487 17.33686,0.140316 l 2.416537,0.118989 -1.610823,0.52265 -1.610823,0.52265 0.623689,1.44178 c 0.34303,0.792978 1.232033,2.851963 1.975562,4.575517 0.743529,1.723554 1.450843,3.133733 1.571805,3.133733 0.120962,0 1.349483,-0.378855 2.73005,-0.841899 1.380564,-0.463042 2.576764,-0.841899 2.658221,-0.841899 0.08146,0 0.148109,0.968184 0.148109,2.15152 v 2.15152 H 70.725611 50.145859 Z"
             style="fill:#0a1edc;fill-opacity:1;stroke:none;stroke-width:0.18708867;stroke-miterlimit:4;stroke-dasharray:none;stroke-opacity:1" />
          <path
             inkscape:connector-curvature="0"
             id="path1124"
             d="m 65.393585,102.85193 c -4.321749,-0.4116 -7.88883,-0.77825 -7.926845,-0.81477 -0.03802,-0.0365 0.280067,-0.61931 0.70685,-1.29507 1.123622,-1.779132 2.57184,-4.7078 3.109092,-6.287392 0.418997,-1.231905 1.001774,-3.985818 1.293469,-6.112311 l 0.109069,-0.795126 h -7.485755 -7.485759 v -6.454558 -6.454561 h 22.918362 22.918361 v 6.454561 6.454558 H 86.828502 80.106575 L 79.89095,88.62302 c -0.71568,3.570589 -2.338806,8.998984 -3.985781,13.33007 l -0.604724,1.59025 -1.02457,0.0285 c -0.56351,0.0157 -4.560541,-0.30829 -8.88229,-0.71989 z"
             style="fill:#0a1edc;fill-opacity:1;stroke:none;stroke-width:0.18708867;stroke-miterlimit:4;stroke-dasharray:none;stroke-opacity:1" />
          <path
             inkscape:connector-curvature="0"
             id="path1126"
             d="m 85.442302,64.1874 c -0.685469,-1.529059 -1.246306,-2.827136 -1.246306,-2.88462 0,-0.213762 2.467991,-0.922372 2.63407,-0.756295 0.09276,0.09276 0.713382,1.386011 1.379159,2.87389 l 1.210503,2.705233 -1.245145,0.420949 c -0.684826,0.231524 -1.299329,0.42095 -1.365557,0.42095 -0.06623,0 -0.681255,-1.251048 -1.366724,-2.780107 z"
             style="fill:#0a1edc;fill-opacity:1;stroke:none;stroke-width:0.18708867;stroke-miterlimit:4;stroke-dasharray:none;stroke-opacity:1" />
          <path
             inkscape:connector-curvature="0"
             id="path1128"
             d="m 90.182834,62.471556 c -0.668843,-1.437762 -1.240544,-2.725939 -1.270447,-2.862617 -0.03625,-0.165674 0.411265,-0.372761 1.342567,-0.621274 l 1.396936,-0.372766 1.231268,2.809193 c 0.677198,1.545055 1.167511,2.869514 1.089586,2.94324 -0.159644,0.151046 -2.065864,0.732253 -2.373932,0.723813 -0.109945,-0.003 -0.747138,-1.181827 -1.415978,-2.619589 z"
             style="fill:#0a1edc;fill-opacity:1;stroke:none;stroke-width:0.18708867;stroke-miterlimit:4;stroke-dasharray:none;stroke-opacity:1" />
        </g>
      </g>
      <g
         transform="translate(-0.08331618)"
         id="g1054">
        <g
           id="g991"
           transform="translate(3.6863199e-6,0.87948242)">
          <path
             inkscape:connector-curvature="0"
             id="path1130"
             d="M 102.53069,89.885868 V 75.947764 h -0.6373 -0.63729 l 0.82607,-3.133736 c 1.04017,-3.945919 2.23562,-9.817666 2.53299,-12.441396 l 0.22795,-2.011204 h 6.05027 6.05026 l -0.11739,0.467723 -0.11739,0.467722 h 14.6132 14.6132 v 12.815573 12.815572 h -14.78001 -14.78 V 74.451053 c 0,-8.568902 -0.0451,-10.476963 -0.2477,-10.476963 -0.1801,0 -0.38816,1.020398 -0.76243,3.739237 -0.28311,2.056583 -0.67568,4.519137 -0.87239,5.472346 -0.30712,1.488313 -0.35798,2.558888 -0.36009,7.579624 l -0.002,5.846522 h 16.37026 16.37025 v 3.834288 3.834292 l -16.32348,0.0478 -16.32349,0.0478 -0.05,4.723987 -0.05,4.723994 h -5.79654 -5.79653 z m 32.17925,-12.254306 v -0.935443 h -3.83532 -3.83532 v 0.935443 0.935442 h 3.83532 3.83532 z m 0,-5.119508 v -0.81647 l -0.86802,-0.118975 c -0.4774,-0.06543 -2.20329,-0.118972 -3.83531,-0.118972 h -2.96731 v 0.935442 0.935442 h 3.83532 3.83532 z m -0.0365,-5.030052 0.057,-0.888672 h -3.84557 -3.84557 v 0.810718 c 0,0.445894 0.0579,0.868571 0.12856,0.939281 0.0707,0.07071 1.77556,0.105789 3.78855,0.07796 l 3.65998,-0.05061 z"
             style="fill:#0a1edc;fill-opacity:1;stroke:none;stroke-width:0.18708867;stroke-miterlimit:4;stroke-dasharray:none;stroke-opacity:1" />
          <path
             inkscape:connector-curvature="0"
             id="path1132"
             d="m 121.42664,103.31054 c -3.34421,-0.36168 -6.09901,-0.67233 -6.12178,-0.69034 -0.22519,-0.17808 1.00777,-7.027875 1.32148,-7.341584 0.0264,-0.02638 3.05362,0.09234 6.72718,0.263853 6.02099,0.281099 6.6792,0.342964 6.6792,0.627772 0,0.173768 -0.12278,0.977712 -0.27284,1.786546 -0.25739,1.387361 -0.84969,5.481703 -0.84969,5.873623 0,0.2612 -0.73099,0.21041 -7.48355,-0.51987 z"
             style="fill:#0a1edc;fill-opacity:1;stroke:none;stroke-width:0.18708867;stroke-miterlimit:4;stroke-dasharray:none;stroke-opacity:1" />
          <path
             inkscape:connector-curvature="0"
             id="path1134"
             d="m 132.65196,103.86948 c 0,-0.0779 -0.20714,-1.0671 -0.46031,-2.19829 -0.44759,-1.999895 -0.89871,-5.523767 -0.72941,-5.697775 0.10091,-0.103712 13.41528,-0.751859 13.51018,-0.65768 0.0364,0.0361 0.18462,0.748323 0.32942,1.582705 0.14479,0.834382 0.64651,2.574322 1.11492,3.86653 0.4684,1.29222 0.82531,2.37264 0.79311,2.40095 -0.0696,0.0612 -13.06974,0.85104 -13.94987,0.84755 -0.33442,-0.001 -0.60804,-0.0661 -0.60804,-0.14399 z"
             style="fill:#0a1edc;fill-opacity:1;stroke:none;stroke-width:0.18708867;stroke-miterlimit:4;stroke-dasharray:none;stroke-opacity:1" />
        </g>
        <g
           id="g998"
           transform="translate(-5.5747085,0.97420569)">
          <path
             inkscape:connector-curvature="0"
             id="path1136"
             d="m 170.30002,101.95039 v -2.060663 l -1.13723,0.574063 c -2.58245,1.30362 -7.34336,2.53983 -11.64332,3.02328 -1.63795,0.18415 -2.05124,0.18166 -2.17159,-0.0131 -0.0818,-0.13228 -0.20522,-1.85459 -0.27436,-3.827352 -0.0692,-1.972762 -0.17585,-4.184957 -0.23713,-4.915982 l -0.11141,-1.32914 2.87644,-0.135053 c 4.28543,-0.201213 6.92046,-0.77529 8.20847,-1.788327 l 0.46772,-0.367871 -5.56589,-0.0042 -5.56589,-0.0042 v -3.926763 -3.926766 l 7.62387,-0.04887 7.62386,-0.04887 v -0.748355 -0.748353 l -1.73057,-0.0538 -1.73057,-0.05379 V 70.515156 59.483944 h 1.69011 1.6901 l 0.38635,-0.654809 0.38635,-0.654812 h 6.15545 c 3.38549,0 6.15544,0.03662 6.15544,0.08137 0,0.04475 -0.0821,0.297321 -0.18246,0.561266 l -0.18246,0.479902 h 2.52107 2.52107 V 70.335089 81.37332 h -1.59025 -1.59026 v 0.895617 0.89562 l 7.57709,-0.07651 7.57709,-0.07651 v 4.045196 4.045196 l -5.65943,0.0042 -5.65943,0.0042 0.46772,0.367871 c 1.2472,0.980943 4.24582,1.61398 8.56263,1.807652 2.31908,0.104045 2.65815,0.158877 2.58417,0.417896 -0.0468,0.163976 -0.14332,2.37331 -0.21442,4.909632 -0.0711,2.53632 -0.18937,4.70873 -0.26281,4.82756 -0.10004,0.16186 -0.71597,0.14199 -2.45491,-0.0792 -5.02437,-0.63909 -8.15278,-1.46318 -11.01218,-2.90086 l -1.50552,-0.756956 v 2.153606 2.15361 h -7.29646 -7.29645 v -2.06067 z m 8.98025,-27.146978 c 0,-1.095436 -0.018,-1.139531 -0.42095,-1.031544 -0.23152,0.06205 -1.03132,0.113961 -1.77734,0.115366 l -1.35639,0.0026 v 1.028988 1.028988 h 1.77734 1.77734 z m 0.18709,-7.181093 v -1.216078 h -1.87089 -1.87088 v 1.216078 1.216075 h 1.87088 1.87089 z"
             style="fill:#0a1edc;fill-opacity:1;stroke:none;stroke-width:0.18708867;stroke-miterlimit:4;stroke-dasharray:none;stroke-opacity:1" />
          <path
             inkscape:connector-curvature="0"
             id="path1138"
             d="m 156.08128,67.5744 c 0,-2.005944 -0.59118,-6.622828 -1.03753,-8.102764 -0.0763,-0.253124 0.57335,-0.352703 4.77805,-0.732338 2.67652,-0.241659 4.89462,-0.404495 4.92911,-0.361852 0.0823,0.101762 1.39825,9.789859 1.33931,9.860111 -0.0622,0.07418 -8.01955,0.596842 -9.12027,0.599054 l -0.88867,0.0019 z"
             style="fill:#0a1edc;fill-opacity:1;stroke:none;stroke-width:0.18708867;stroke-miterlimit:4;stroke-dasharray:none;stroke-opacity:1" />
          <path
             inkscape:connector-curvature="0"
             id="path1140"
             d="m 163.0971,82.014411 c -1.20346,-0.260604 -3.76936,-0.548108 -6.64412,-0.744456 l -1.77982,-0.121565 0.60049,-2.393738 c 0.6716,-2.677152 1.1818,-5.991747 1.1818,-7.677627 v -1.116099 l 0.70159,0.0039 c 1.50424,0.0085 8.48525,0.54728 8.68427,0.670285 0.64237,0.397007 -0.73506,11.454468 -1.4436,11.58862 -0.0979,0.01855 -0.68322,-0.07567 -1.30061,-0.209367 z"
             style="fill:#0a1edc;fill-opacity:1;stroke:none;stroke-width:0.18708867;stroke-miterlimit:4;stroke-dasharray:none;stroke-opacity:1" />
          <path
             inkscape:connector-curvature="0"
             id="path1142"
             d="m 190.04361,80.304478 c -0.15397,-2.277883 -0.61917,-7.196492 -0.8185,-8.654026 l -0.14932,-1.091835 1.13585,-0.115763 c 2.58576,-0.263536 5.71462,-0.47619 7.04724,-0.478968 l 1.42127,-0.003 0.48791,2.011204 c 0.26836,1.106162 0.57935,2.684722 0.69109,3.507912 0.24987,1.840748 0.54324,5.584264 0.44597,5.69083 -0.0392,0.043 -0.55534,0.10886 -1.14689,0.146373 -2.8476,0.18057 -8.4064,0.646168 -8.68143,0.727146 -0.26743,0.07874 -0.32623,-0.157414 -0.43319,-1.739913 z"
             style="fill:#0a1edc;fill-opacity:1;stroke:none;stroke-width:0.18708867;stroke-miterlimit:4;stroke-dasharray:none;stroke-opacity:1" />
          <path
             inkscape:connector-curvature="0"
             id="path1144"
             d="m 197.22519,68.95367 c -0.0429,-0.0395 -1.88803,-0.216339 -4.10036,-0.392983 -2.21232,-0.176646 -4.03477,-0.333756 -4.04988,-0.349139 -0.0151,-0.01537 0.12791,-0.827767 0.31785,-1.805307 0.359,-1.847752 0.64684,-4.099896 0.8452,-6.613337 l 0.11589,-1.468398 1.71287,0.125878 c 2.29163,0.168407 6.77435,0.626785 7.54673,0.771684 l 0.62071,0.116446 -0.006,1.242028 c -0.007,1.500536 -0.23217,3.315218 -0.77518,6.246648 l -0.40721,2.198293 h -0.87144 c -0.4793,0 -0.90653,-0.03232 -0.9494,-0.07181 z"
             style="fill:#0a1edc;fill-opacity:1;stroke:none;stroke-width:0.18708867;stroke-miterlimit:4;stroke-dasharray:none;stroke-opacity:1" />
        </g>
        <g
           id="g1003"
           transform="translate(-11.054082,0.88069319)">
          <path
             inkscape:connector-curvature="0"
             id="path1146"
             d="m 207.71775,75.667131 v -4.022408 h 0.94805 c 0.81456,0 0.93461,-0.0461 0.85256,-0.327403 -0.0525,-0.180073 -0.19766,-0.864923 -0.32253,-1.521886 -0.16843,-0.886087 -0.31609,-1.217766 -0.57193,-1.284668 -0.32272,-0.08439 -0.34488,-0.371396 -0.34488,-4.464953 V 59.67105 h 2.61924 2.61924 v -0.65481 -0.654812 h 6.45456 6.45455 v 0.654812 0.65481 h 2.43216 2.43215 v 4.396584 4.396583 h -0.45446 c -0.40348,0 -0.47868,0.120661 -0.67045,1.075759 -0.1188,0.591669 -0.26018,1.265187 -0.31418,1.496711 -0.092,0.394417 -0.0379,0.42095 0.85754,0.42095 h 0.95573 v 4.11595 4.115949 h -11.97368 -11.97367 z m 13.1794,-5.285256 c 0.0697,-0.694566 0.1694,-1.410181 0.22149,-1.590254 0.0843,-0.29155 -0.0621,-0.327404 -1.33751,-0.327404 h -1.43222 l 0.10008,0.701583 c 0.055,0.385871 0.15179,1.101484 0.215,1.590254 l 0.11492,0.888669 h 0.99572 0.99574 z"
             style="fill:#0a1edc;fill-opacity:1;stroke:none;stroke-width:0.18708867;stroke-miterlimit:4;stroke-dasharray:none;stroke-opacity:1" />
          <path
             inkscape:connector-curvature="0"
             id="path1148"
             d="M 208.65319,92.909283 V 81.807504 l 4.80111,-0.123539 c 2.64061,-0.06795 7.7341,-0.123542 11.31886,-0.123542 h 6.51776 v 10.757598 10.757599 h -6.33507 -6.33507 l 0.0894,0.46772 0.0894,0.46772 h -5.07321 -5.0732 z m 12.72203,-0.840714 c 0,-1.217633 -0.0348,-2.24896 -0.0772,-2.291834 -0.0425,-0.04287 -0.63181,-0.04972 -1.30962,-0.01521 l -1.23239,0.06274 v 2.229102 2.229098 h 1.30962 1.30962 z"
             style="fill:#0a1edc;fill-opacity:1;stroke:none;stroke-width:0.18708867;stroke-miterlimit:4;stroke-dasharray:none;stroke-opacity:1" />
          <path
             inkscape:connector-curvature="0"
             id="path1150"
             d="M 233.16181,81.653969 V 59.296873 l 5.56588,-5.29e-4 c 3.06124,-2.22e-4 7.64959,-0.0558 10.19634,-0.123499 l 4.63044,-0.123098 v 5.037214 5.037215 l -1.23662,4.206859 c -0.68014,2.313773 -1.23725,4.37524 -1.23803,4.581038 -7.9e-4,0.205798 0.55012,2.26845 1.22419,4.583673 0.67408,2.315221 1.39957,5.118809 1.6122,6.230194 1.11893,5.848324 -0.39667,10.756736 -3.78412,12.25516 -1.09604,0.48483 -3.26082,0.97187 -4.31978,0.97187 -0.46176,0 -1.05551,0.0821 -1.31946,0.18246 -0.41755,0.15875 -0.4799,0.29243 -0.4799,1.02898 v 0.84653 h -5.42557 -5.42557 z m 10.8133,9.137698 c 0.81156,-0.51221 1.15978,-1.353199 1.14972,-2.776683 -0.008,-1.110777 -0.18628,-1.81595 -1.17519,-4.644361 -0.64127,-1.83411 -1.24716,-3.328541 -1.34644,-3.320966 -0.295,0.02252 -0.33726,10.896976 -0.0431,11.081967 0.27474,0.172763 0.80414,0.04557 1.41498,-0.339957 z m -1.00974,-14.422954 c 0.12611,-0.412205 1.79594,-7.83382 1.79594,-7.982119 0,-0.06021 -0.50514,-0.109466 -1.12254,-0.109466 h -1.12253 v 4.209494 c 0,2.478829 0.0717,4.209497 0.17448,4.209497 0.096,0 0.21956,-0.147333 0.27465,-0.327406 z"
             style="fill:#0a1edc;fill-opacity:1;stroke:none;stroke-width:0.18708867;stroke-miterlimit:4;stroke-dasharray:none;stroke-opacity:1" />
        </g>
        <g
           id="g1006"
           transform="translate(-17.421952,0.53711169)">
          <path
             inkscape:connector-curvature="0"
             id="path1152"
             d="M 262.53473,81.653969 V 59.296873 h 11.84935 c 6.51714,0 16.28317,-0.05586 21.70229,-0.124142 l 9.85292,-0.12414 v 22.481235 22.481234 h -7.57708 -7.57709 v -1.02898 -1.02899 h -6.45456 -6.45456 v 1.02899 1.02898 h -7.67064 -7.67063 z m 28.06331,6.361015 v -1.403165 h -6.36104 -6.361 v 1.403165 1.403164 h 6.361 6.36104 z m 0,-14.686463 v -1.496708 h -6.36104 -6.361 v 1.390152 c 0,1.292892 0.0294,1.395826 0.42095,1.471232 0.23151,0.04459 3.09398,0.09254 6.36101,0.106556 l 5.94008,0.02548 z"
             style="fill:#0a1edc;fill-opacity:1;stroke:none;stroke-width:0.18708867;stroke-miterlimit:4;stroke-dasharray:none;stroke-opacity:1" />
        </g>
        <g
           id="g1010"
           transform="translate(-24.094201,0.88068319)">
          <path
             inkscape:connector-curvature="0"
             id="path1154"
             d="m 319.92369,102.51435 v -1.4967 h -2.43216 -2.43216 v -4.303045 -4.303038 h 2.33863 2.3386 v -1.122534 -1.122532 h -2.52569 -2.52571 v -4.303038 -4.30304 h 1.12252 c 0.61741,0 1.11959,-0.02103 1.11596,-0.04677 -0.004,-0.02572 -0.15912,-0.594009 -0.34557,-1.262851 l -0.33901,-1.216076 -0.87048,-0.05702 -0.87051,-0.05702 v -4.386334 -4.386331 h 2.61925 2.61924 v -1.122532 -1.122531 h -2.3386 -2.33863 V 63.693455 59.48396 h 2.33863 2.3386 v -0.561266 -0.561266 h 5.98683 5.98683 v 0.467723 0.467722 h 2.15154 2.15151 v 4.303038 4.303041 h -2.24506 -2.24507 v 1.028985 1.028989 h 2.33862 2.3386 v 4.490127 4.49013 h -0.548 c -0.5179,0 -0.55962,0.0591 -0.75941,1.075759 -0.11626,0.591669 -0.2441,1.176372 -0.28408,1.299345 -0.0468,0.143996 0.20685,0.24389 0.71263,0.280633 l 0.78531,0.05705 0.0503,4.256265 0.0503,4.256267 h -2.34211 -2.34212 v 1.028988 1.028989 h 2.15151 2.15154 v 4.396584 4.396587 h -2.15154 -2.15151 v 1.4967 1.49671 h -5.79975 -5.79974 z m 6.80548,-21.46842 c 0.0525,-0.180073 0.15192,-0.727308 0.22092,-1.216078 l 0.12544,-0.888669 h -1.437 c -1.28024,0 -1.42661,0.03572 -1.34152,0.327403 0.0525,0.180073 0.15195,0.727308 0.22093,1.216078 l 0.12544,0.888672 h 0.99515 c 0.78663,0 1.01515,-0.0686 1.09064,-0.327406 z"
             style="fill:#0a1edc;fill-opacity:1;stroke:none;stroke-width:0.18708867;stroke-miterlimit:4;stroke-dasharray:none;stroke-opacity:1" />
          <path
             inkscape:connector-curvature="0"
             id="path1156"
             d="M 337.88418,81.588154 V 59.165243 l 1.5435,-0.120152 c 0.84892,-0.06609 5.1847,-0.120658 9.63507,-0.121275 l 8.09157,-0.0011 v 8.39376 c 0,8.132953 -0.0116,8.40866 -0.37719,8.873303 l -0.37722,0.479541 0.424,0.06018 0.42396,0.06018 0.048,13.425659 0.048,13.425651 -1.56824,-1.04365 -1.56826,-1.04365 -1.26659,0.84946 c -1.32554,0.88899 -2.81995,1.55909 -3.02337,1.35568 -0.0655,-0.0655 -0.26704,-1.32467 -0.44778,-2.79807 -0.18073,-1.473386 -0.50408,-3.65899 -0.71855,-4.856896 -0.21447,-1.197904 -0.38995,-2.249371 -0.38995,-2.336596 0,-0.08723 0.38783,-0.347009 0.86183,-0.577298 0.6449,-0.313306 0.83579,-0.4993 0.75846,-0.738862 -0.29562,-0.915527 -1.26051,-4.62053 -1.53287,-5.886045 -0.17163,-0.797465 -0.3878,-1.449938 -0.48037,-1.449938 -0.0975,0 -0.16831,3.976868 -0.16831,9.447977 v 9.447978 h -4.95784 -4.95787 z m 16.86859,6.224309 c 0.17174,-0.814702 0.31928,-1.881182 0.3279,-2.369949 l 0.0156,-0.888672 h -0.99782 c -0.54877,0 -1.041,0.04321 -1.09382,0.09601 -0.31406,0.314055 0.85024,4.839091 1.21391,4.71787 0.12208,-0.04069 0.36243,-0.740559 0.53414,-1.555264 z m -4.77668,-11.630839 c -0.16023,-0.732814 -0.80375,-4.464267 -0.95184,-5.519116 -0.10445,-0.744029 -0.0757,-0.888669 0.17664,-0.888669 0.55041,0 1.417,-0.571423 1.7871,-1.178388 0.61793,-1.013452 0.54753,-1.066678 -1.41076,-1.066678 h -1.77734 v 4.583673 4.583673 h 1.14435 1.14435 z"
             style="fill:#0a1edc;fill-opacity:1;stroke:none;stroke-width:0.18708867;stroke-miterlimit:4;stroke-dasharray:none;stroke-opacity:1" />
        </g>
      </g>
    </g>
  </g>
</svg>
