<?xml version="1.0" encoding="UTF-8" standalone="no"?>
<!-- Created with Inkscape (http://www.inkscape.org/) -->

<svg
   xmlns:dc="http://purl.org/dc/elements/1.1/"
   xmlns:cc="http://creativecommons.org/ns#"
   xmlns:rdf="http://www.w3.org/1999/02/22-rdf-syntax-ns#"
   xmlns:svg="http://www.w3.org/2000/svg"
   xmlns="http://www.w3.org/2000/svg"
   xmlns:sodipodi="http://sodipodi.sourceforge.net/DTD/sodipodi-0.dtd"
   xmlns:inkscape="http://www.inkscape.org/namespaces/inkscape"
   width="1772.2454"
   height="175.17508"
   viewBox="0 0 468.90659 46.348408"
   version="1.1"
   id="svg8"
   inkscape:version="0.92.2 5c3e80d, 2017-08-06"
   sodipodi:docname="logo.svg">
  <defs
     id="defs2" />
  <sodipodi:namedview
     id="base"
     pagecolor="#ffffff"
     bordercolor="#666666"
     borderopacity="1.0"
     inkscape:pageopacity="0.0"
     inkscape:pageshadow="2"
     inkscape:zoom="0.5"
     inkscape:cx="869.26771"
     inkscape:cy="131.23523"
     inkscape:document-units="mm"
     inkscape:current-layer="layer1"
     showgrid="false"
     inkscape:lockguides="true"
     fit-margin-top="0"
     fit-margin-left="0"
     fit-margin-right="0"
     fit-margin-bottom="0"
     units="px"
     inkscape:window-width="1913"
     inkscape:window-height="1032"
     inkscape:window-x="1373"
     inkscape:window-y="0"
     inkscape:window-maximized="0" />
  <metadata
     id="metadata5">
    <rdf:RDF>
      <cc:Work
         rdf:about="">
        <dc:format>image/svg+xml</dc:format>
        <dc:type
           rdf:resource="http://purl.org/dc/dcmitype/StillImage" />
        <dc:title></dc:title>
      </cc:Work>
    </rdf:RDF>
  </metadata>
  <g
     inkscape:label="レイヤー 1"
     inkscape:groupmode="layer"
     id="layer1"
     transform="translate(111.31918,-57.977541)">
    <g
       id="g1219">
      <g
         style="stroke:none"
         id="g1106">
        <path
           style="fill:none;stroke:none;stroke-width:0.26458332;stroke-linecap:butt;stroke-linejoin:miter;stroke-miterlimit:4;stroke-dasharray:none;stroke-opacity:1"
           d="m -111.31918,72.347445 v -13.78629 h 44.983099 c -0.44627,15.092584 0.895623,32.61194 -7.106335,37.450389 -7.608854,7.325896 -21.832444,7.289196 -36.313374,7.888036 l -1.42127,-15.065451 c 9.04752,-0.120026 19.037978,0.218693 24.161543,-2.416126 l -23.024523,0.07099 0.0711,-12.151833 27.146198,-0.284271 v -1.847643 z"
           id="path899"
           inkscape:connector-curvature="0"
           sodipodi:nodetypes="cccccccccccc" />
        <path
           style="fill:none;stroke:none;stroke-width:0.26458332;stroke-linecap:butt;stroke-linejoin:miter;stroke-miterlimit:4;stroke-dasharray:none;stroke-opacity:1"
           d="m -58.94549,58.703278 h 44.91204 v 13.004601 h -23.166658 v 2.131885 h 23.095593 v 13.430993 h -23.237719 c 0.498338,1.360441 0.620755,2.161665 5.18291,2.14121 6.812813,-0.03038 14.608096,0.009 19.191822,-1.004215 l 0.07105,14.781178 c -6.061715,-0.63806 -23.762743,2.99811 -34.188034,-1.12557 -4.561012,-1.80408 -6.886018,-6.900178 -6.175956,-14.72155 h -5.827195 V 73.697658 h 5.898263 v -1.989809 h -5.756131 z"
           id="path901"
           inkscape:connector-curvature="0"
           sodipodi:nodetypes="ccccccccsccsccccccc" />
        <path
           style="fill:none;stroke:none;stroke-width:0.26458332;stroke-linecap:butt;stroke-linejoin:miter;stroke-miterlimit:4;stroke-dasharray:none;stroke-opacity:1"
           d="m -4.5820244,58.561155 -0.071083,33.399778 c 0.026773,5.242565 1.9293239,6.034012 4.40592579,8.172277 3.53269841,2.48254 6.52026981,2.79208 13.43097561,3.4821 l 25.938125,-0.28428 0.07108,-17.4816 c -5.282333,1.018714 -10.080235,1.643058 -15.562872,1.137025 -2.858915,-0.08393 -5.775358,0.04873 -8.456539,-0.923806 -0.98595,-0.473756 -0.911242,-0.947511 -1.208081,-1.421267 l 0.07108,-3.624233 24.943239,-4.761259 -3.411036,-16.131391 -21.674329,4.26383 v -5.756146 z"
           id="path903"
           inkscape:connector-curvature="0"
           sodipodi:nodetypes="ccccccccccccccc" />
        <path
           style="fill:none;stroke:none;stroke-width:0.26458332;stroke-linecap:butt;stroke-linejoin:miter;stroke-miterlimit:4;stroke-dasharray:none;stroke-opacity:1"
           d="M 49.994635,58.490087 V 71.99212 h 41.500991 v -4.832311 l -5.756127,1.918726 -3.837423,-8.882923 4.548059,-1.563399 z"
           id="path905"
           inkscape:connector-curvature="0" />
        <path
           style="fill:none;stroke:none;stroke-width:0.26458332;stroke-linecap:butt;stroke-linejoin:miter;stroke-miterlimit:4;stroke-dasharray:none;stroke-opacity:1"
           d="m 83.820791,61.119419 3.126786,-1.065942 2.771468,6.182525 -3.126787,1.065942 z"
           id="path907"
           inkscape:connector-curvature="0" />
        <path
           style="fill:none;stroke:none;stroke-width:0.26458332;stroke-linecap:butt;stroke-linejoin:miter;stroke-miterlimit:4;stroke-dasharray:none;stroke-opacity:1"
           d="m 91.353502,65.454301 3.126786,-0.923837 -2.700403,-6.182504 -3.339977,0.923816 z"
           id="path911"
           inkscape:connector-curvature="0" />
        <path
           style="fill:none;stroke:none;stroke-width:0.26458332;stroke-linecap:butt;stroke-linejoin:miter;stroke-miterlimit:4;stroke-dasharray:none;stroke-opacity:1"
           d="m 47.578476,74.337224 v 13.35991 h 14.852245 c -0.675528,5.409969 -1.197977,7.906262 -5.471877,14.567986 l 18.405407,1.70551 c 1.874175,-4.76126 3.851154,-10.162054 4.903368,-16.202444 H 93.84072 V 74.337224 Z"
           id="path913"
           inkscape:connector-curvature="0"
           sodipodi:nodetypes="ccccccccc" />
        <path
           style="fill:none;stroke:none;stroke-width:0.26458332;stroke-linecap:butt;stroke-linejoin:miter;stroke-miterlimit:4;stroke-dasharray:none;stroke-opacity:1"
           d="m 104.64235,58.06371 c -0.49715,6.186514 -2.0865,12.190986 -3.69529,18.19221 h 1.42126 v 27.85685 h 12.00971 v -9.522493 h 32.7602 V 86.34692 H 114.30697 V 75.118925 c 0.85793,-3.562447 1.27988,-7.342864 1.77659,-11.08589 v 21.034754 h 29.98873 V 58.987534 h -29.06492 l 0.28427,-0.923824 z"
           id="path917"
           inkscape:connector-curvature="0"
           sodipodi:nodetypes="ccccccccccccccccc" />
        <path
           style="fill:none;stroke:none;stroke-width:0.26458332;stroke-linecap:butt;stroke-linejoin:miter;stroke-miterlimit:4;stroke-dasharray:none;stroke-opacity:1"
           d="m 127.31156,66.733432 v 1.421266 h 7.17738 v -1.350183 z"
           id="path919"
           inkscape:connector-curvature="0" />
        <path
           inkscape:connector-curvature="0"
           id="path921"
           d="m 127.31156,71.707879 v 1.421267 h 7.17738 v -1.350184 z"
           style="fill:none;stroke:none;stroke-width:0.26458332;stroke-linecap:butt;stroke-linejoin:miter;stroke-miterlimit:4;stroke-dasharray:none;stroke-opacity:1" />
        <path
           style="fill:none;stroke:none;stroke-width:0.26458332;stroke-linecap:butt;stroke-linejoin:miter;stroke-miterlimit:4;stroke-dasharray:none;stroke-opacity:1"
           d="m 127.31156,76.895515 v 1.421267 h 7.17738 v -1.350184 z"
           id="path923"
           inkscape:connector-curvature="0" />
        <path
           style="fill:none;stroke:none;stroke-width:0.26458332;stroke-linecap:butt;stroke-linejoin:miter;stroke-miterlimit:4;stroke-dasharray:none;stroke-opacity:1"
           d="m 116.50994,95.016654 c -1.02395,2.935786 -1.3391,5.446246 -1.42128,7.816976 l 13.99949,1.49232 c 0.29119,-3.29595 0.80892,-5.911336 1.27913,-8.669731 z"
           id="path925"
           inkscape:connector-curvature="0"
           sodipodi:nodetypes="ccccc" />
        <path
           style="fill:none;stroke:none;stroke-width:0.26458332;stroke-linecap:butt;stroke-linejoin:miter;stroke-miterlimit:4;stroke-dasharray:none;stroke-opacity:1"
           d="m 131.18451,95.691746 c 0.0602,2.969658 0.60458,5.818174 1.42126,8.598684 l 15.06545,-0.88831 c -1.05129,-2.63121 -2.18802,-5.205477 -2.41616,-8.385466 z"
           id="path927"
           inkscape:connector-curvature="0"
           sodipodi:nodetypes="ccccc" />
        <path
           style="fill:none;stroke:none;stroke-width:0.26458332;stroke-linecap:butt;stroke-linejoin:miter;stroke-miterlimit:4;stroke-dasharray:none;stroke-opacity:1"
           d="m 154.73493,58.987534 c 0.79902,3.346912 1.14836,6.734704 1.21872,10.147855 l 10.44633,-0.621787 -1.4426,-10.471205 z"
           id="path929"
           inkscape:connector-curvature="0"
           sodipodi:nodetypes="ccccc" />
        <path
           style="fill:none;stroke:none;stroke-width:0.26458332;stroke-linecap:butt;stroke-linejoin:miter;stroke-miterlimit:4;stroke-dasharray:none;stroke-opacity:1"
           d="m 156.32673,69.682574 c -0.0572,3.967946 -0.80649,7.854462 -1.98978,11.689929 3.53594,0.201246 7.09252,0.350751 10.37169,1.193849 1.099,-4.117542 1.68445,-8.210628 1.39284,-12.261961 -3.25826,-0.207262 -6.51649,-0.414555 -9.77475,-0.621817 z"
           id="path931"
           inkscape:connector-curvature="0"
           sodipodi:nodetypes="ccccc" />
        <path
           style="fill:none;stroke:none;stroke-width:0.26458332;stroke-linecap:butt;stroke-linejoin:miter;stroke-miterlimit:4;stroke-dasharray:none;stroke-opacity:1"
           d="m 166.73021,59.24374 v 22.582063 h 3.44712 v 1.195925 H 154.9819 v 8.230843 h 10.76341 c -2.79428,1.967759 -7.14742,1.708576 -11.18552,1.899444 l 0.49247,10.833775 c 5.74216,-0.51891 10.99402,-1.52815 15.05471,-3.72853 v 4.00991 h 14.98437 v -4.22093 c 4.76764,2.79338 9.92342,3.25775 15.05471,3.86919 l 0.42208,-10.693054 c -4.31771,-0.18049 -8.75661,-0.264117 -11.25585,-1.899444 h 10.9041 v -8.512257 l -15.12507,0.140782 0.0704,-1.406978 h 3.1657 V 59.103108 h -4.99478 l 0.49247,-1.125567 h -12.87391 l -0.70349,1.195928 z"
           id="path935"
           inkscape:connector-curvature="0"
           sodipodi:nodetypes="ccccccccccccccccccccccccccc" />
        <path
           style="fill:none;stroke:none;stroke-width:0.26458332;stroke-linecap:butt;stroke-linejoin:miter;stroke-miterlimit:4;stroke-dasharray:none;stroke-opacity:1"
           d="m 175.89317,66.551227 v 2.057734 h 3.29763 v -2.04892 z"
           id="path941"
           inkscape:connector-curvature="0"
           sodipodi:nodetypes="ccccc" />
        <path
           style="fill:none;stroke:none;stroke-width:0.26458332;stroke-linecap:butt;stroke-linejoin:miter;stroke-miterlimit:4;stroke-dasharray:none;stroke-opacity:1"
           d="m 175.93844,74.028977 v 1.778366 h 3.19608 v -1.797016 c -1.04413,0.01805 -2.14172,0.03399 -3.19608,0.01805 z"
           id="path943"
           inkscape:connector-curvature="0"
           sodipodi:nodetypes="ccccc" />
        <path
           style="fill:none;stroke:none;stroke-width:0.26458332;stroke-linecap:butt;stroke-linejoin:miter;stroke-miterlimit:4;stroke-dasharray:none;stroke-opacity:1"
           d="m 190.01577,58.118143 c 0.10017,3.505113 -0.53401,6.928672 -1.26629,10.341312 3.5471,0.22832 7.05089,0.499927 10.41167,0.914542 0.71191,-3.36099 1.40475,-6.726462 1.33665,-10.270979 -3.13791,-0.422006 -6.46024,-0.795473 -10.48203,-0.984875 z"
           id="path945"
           inkscape:connector-curvature="0"
           sodipodi:nodetypes="ccccc" />
        <path
           style="fill:none;stroke:none;stroke-width:0.26458332;stroke-linecap:butt;stroke-linejoin:miter;stroke-miterlimit:4;stroke-dasharray:none;stroke-opacity:1"
           d="m 188.83741,70.358899 c 0.56024,3.906821 0.90521,7.89435 1.09043,11.941772 3.59595,-0.389767 7.1556,-0.688688 10.65789,-0.84421 -0.17658,-4.032893 -0.53446,-8.05249 -1.82909,-11.818649 -3.33253,0.109798 -6.63348,0.377495 -9.91923,0.721087 z"
           id="path949"
           inkscape:connector-curvature="0"
           sodipodi:nodetypes="ccccc" />
        <path
           style="fill:none;stroke:none;stroke-width:0.26458332;stroke-linecap:butt;stroke-linejoin:miter;stroke-miterlimit:4;stroke-dasharray:none;stroke-opacity:1"
           d="m 213.23099,58.118143 v 1.40698 h -5.13551 v 9.145385 h 0.63316 l 0.5628,2.743624 h -1.75872 v 8.512257 H 231.8735 V 71.27344 h -1.82908 l 0.49243,-2.602932 h 1.05527 v -9.145385 h -4.92445 v -1.477332 z"
           id="path953"
           inkscape:connector-curvature="0" />
        <path
           style="fill:none;stroke:none;stroke-width:0.26458332;stroke-linecap:butt;stroke-linejoin:miter;stroke-miterlimit:4;stroke-dasharray:none;stroke-opacity:1"
           d="m 218.64787,68.670508 0.28127,2.743624 h 1.61803 l 0.35174,-2.813955 z"
           id="path955"
           inkscape:connector-curvature="0"
           sodipodi:nodetypes="ccccc" />
        <path
           style="fill:none;stroke:none;stroke-width:0.26458332;stroke-linecap:butt;stroke-linejoin:miter;stroke-miterlimit:4;stroke-dasharray:none;stroke-opacity:1"
           d="m 208.44723,81.474058 v 22.793112 h 10.69308 l -0.25569,-0.95409 h 12.70744 V 81.333367 Z"
           id="path957"
           inkscape:connector-curvature="0" />
        <path
           style="fill:none;stroke:none;stroke-width:0.26458332;stroke-linecap:butt;stroke-linejoin:miter;stroke-miterlimit:4;stroke-dasharray:none;stroke-opacity:1"
           d="m 218.92926,89.986285 v 4.150632 h 2.18083 v -4.220963 z"
           id="path959"
           inkscape:connector-curvature="0" />
        <path
           style="fill:none;stroke:none;stroke-width:0.26458332;stroke-linecap:butt;stroke-linejoin:miter;stroke-miterlimit:4;stroke-dasharray:none;stroke-opacity:1"
           d="m 232.92873,59.032687 v 45.164123 h 11.39658 v -1.89941 c 2.28085,-0.0782 4.49257,-0.32915 6.40176,-1.3365 1.99239,-1.015282 2.33033,-2.503269 3.09537,-3.869216 0.71795,-2.527818 0.77054,-3.381415 0.63315,-6.683173 -0.91207,-4.64373 -0.53407,-3.3646 -1.75875,-7.316332 l -1.47734,-5.205805 2.53257,-8.652949 V 58.962446 Z"
           id="path961"
           inkscape:connector-curvature="0"
           sodipodi:nodetypes="cccccccccccc" />
        <path
           style="fill:none;stroke:none;stroke-width:0.26458332;stroke-linecap:butt;stroke-linejoin:miter;stroke-miterlimit:4;stroke-dasharray:none;stroke-opacity:1"
           d="m 242.70728,68.459455 v 8.160512 l 1.82905,-8.160512 z"
           id="path963"
           inkscape:connector-curvature="0"
           sodipodi:nodetypes="cccc" />
        <path
           style="fill:none;stroke:none;stroke-width:0.26458332;stroke-linecap:butt;stroke-linejoin:miter;stroke-miterlimit:4;stroke-dasharray:none;stroke-opacity:1"
           d="m 242.56658,80.067081 v 10.904106 c 0.89884,0.183498 1.72741,-0.652831 2.25116,-1.406977 0.0659,-1.248418 0.11852,-2.44347 0,-2.954647 z"
           id="path965"
           inkscape:connector-curvature="0"
           sodipodi:nodetypes="ccccc" />
        <path
           style="fill:none;stroke:none;stroke-width:0.26458332;stroke-linecap:butt;stroke-linejoin:miter;stroke-miterlimit:4;stroke-dasharray:none;stroke-opacity:1"
           d="m 262.33466,59.032687 v 45.234483 h 15.82856 v -2.18082 h 12.31112 v 2.11046 h 15.6175 V 58.962326 Z"
           id="path967"
           inkscape:connector-curvature="0" />
        <path
           style="fill:none;stroke:none;stroke-width:0.26458332;stroke-linecap:butt;stroke-linejoin:miter;stroke-miterlimit:4;stroke-dasharray:none;stroke-opacity:1"
           d="m 278.09289,72.04729 v 2.462211 l 12.31108,0.07039 -9e-5,-2.462241 z"
           id="path969"
           inkscape:connector-curvature="0"
           sodipodi:nodetypes="ccccc" />
        <path
           style="fill:none;stroke:none;stroke-width:0.26458332;stroke-linecap:butt;stroke-linejoin:miter;stroke-miterlimit:4;stroke-dasharray:none;stroke-opacity:1"
           d="m 278.09289,86.820585 v 2.462211 h 12.24075 v -2.532542 z"
           id="path971"
           inkscape:connector-curvature="0" />
        <path
           style="fill:none;stroke:none;stroke-width:0.26458332;stroke-linecap:butt;stroke-linejoin:miter;stroke-miterlimit:4;stroke-dasharray:none;stroke-opacity:1"
           d="m 319.59888,58.188494 v 1.055246 h -4.7134 v 8.934332 h 4.64304 v 1.829083 h -5.2762 v 9.075023 h 1.75876 l 0.63312,2.321519 h -2.11046 v 8.934362 h 4.92442 v 1.899414 h -4.57268 v 9.075057 h 4.85409 v 2.88428 h 12.0297 v -2.95464 h 4.22094 v -9.28608 h -4.22094 v -1.5477 h 4.64304 l 0.0526,-8.969497 -1.63562,-0.01805 0.45727,-2.268756 h 1.05523 V 69.72529 h -4.64304 v -1.54767 h 4.50235 v -9.075053 h -4.36166 v -0.896953 z"
           id="path973"
           inkscape:connector-curvature="0"
           sodipodi:nodetypes="ccccccccccccccccccccccccccccccccccccc" />
        <path
           style="fill:none;stroke:none;stroke-width:0.26458332;stroke-linecap:butt;stroke-linejoin:miter;stroke-miterlimit:4;stroke-dasharray:none;stroke-opacity:1"
           d="m 324.51238,79.084254 0.3482,2.039534 h 1.64155 l 0.34823,-2.039534 z"
           id="path975"
           inkscape:connector-curvature="0" />
        <path
           style="fill:none;stroke:none;stroke-width:0.26458332;stroke-linecap:butt;stroke-linejoin:miter;stroke-miterlimit:4;stroke-dasharray:none;stroke-opacity:1"
           d="m 337.60824,58.82164 v 45.44553 h 10.34134 V 85.202555 c 0.55341,2.50977 0.98075,5.099737 1.87396,7.393251 l -1.75641,0.989745 c 0.7028,3.464982 1.21972,7.029079 1.57081,10.681619 1.73544,-0.58608 3.25913,-1.3839 4.50234,-2.46221 l 3.44712,2.25116 -0.0439,-27.427369 -0.8046,-0.105285 0.63752,-0.677108 v -17.23553 z"
           id="path977"
           inkscape:connector-curvature="0"
           sodipodi:nodetypes="cccccccccccccc" />
        <path
           style="fill:none;stroke:none;stroke-width:0.26458332;stroke-linecap:butt;stroke-linejoin:miter;stroke-miterlimit:4;stroke-dasharray:none;stroke-opacity:1"
           d="m 353.15541,84.850811 h 1.75872 c -0.003,1.568335 -0.41323,3.020345 -0.74701,4.494164 -0.36874,-1.490184 -0.93918,-2.92992 -1.01171,-4.494164 z"
           id="path979"
           inkscape:connector-curvature="0"
           sodipodi:nodetypes="cccc" />
        <path
           style="fill:none;stroke:none;stroke-width:0.26458332;stroke-linecap:butt;stroke-linejoin:miter;stroke-miterlimit:4;stroke-dasharray:none;stroke-opacity:1"
           d="m 347.93715,67.797178 0.012,8.611737 h 1.89942 c -0.59426,-2.109624 -0.84024,-4.482011 -1.17887,-6.815323 1.47914,-0.08814 1.94439,-0.551697 2.51552,-1.767265 z"
           id="path981"
           inkscape:connector-curvature="0"
           sodipodi:nodetypes="cccccc" />
      </g>
      <path
         transform="scale(0.26458333)"
         inkscape:connector-curvature="0"
         id="path1108"
         d="m -416.06186,365.17899 c -1.21919,-14.2833 -1.77781,-26.40853 -1.24138,-26.94496 0.53644,-0.53644 16.46008,-1.6135 35.38587,-2.39347 32.31503,-1.33176 47.87648,-3.68846 52.31053,-7.92213 1.13966,-1.08815 -15.46782,-1.81414 -41.5,-1.81414 h -43.4 v -22 -22 h 51 51 v -5 -5 h -53 -53 v -25 -25 h 83 83 l -0.002,28.5 c -0.002,36.83843 -3.00385,67.85891 -8.19161,84.65492 -3.31916,10.74618 -6.0641,15.23498 -13.92566,22.77257 -23.04203,22.09249 -53.34881,30.05096 -124.05021,32.57524 l -15.16915,0.54159 z"
         style="fill:none;fill-opacity:0;stroke:none;stroke-width:2;stroke-miterlimit:4;stroke-dasharray:none;stroke-opacity:1" />
      <path
         transform="scale(0.26458333)"
         inkscape:connector-curvature="0"
         id="path1110"
         d="m -416.06186,365.17899 c -1.21919,-14.2833 -1.77781,-26.40853 -1.24138,-26.94496 0.53644,-0.53644 16.46008,-1.6135 35.38587,-2.39347 32.31503,-1.33176 47.87648,-3.68846 52.31053,-7.92213 1.13966,-1.08815 -15.46782,-1.81414 -41.5,-1.81414 h -43.4 v -22 -22 h 51 51 v -5 -5 h -53 -53 v -25 -25 h 83 83 l -0.002,28.5 c -0.002,36.83843 -3.00385,67.85891 -8.19161,84.65492 -3.31916,10.74618 -6.0641,15.23498 -13.92566,22.77257 -23.04203,22.09249 -53.34881,30.05096 -124.05021,32.57524 l -15.16915,0.54159 z"
         style="fill:none;fill-opacity:0;stroke:none;stroke-width:2;stroke-miterlimit:4;stroke-dasharray:none;stroke-opacity:1" />
      <path
         transform="scale(0.26458333)"
         inkscape:connector-curvature="0"
         id="path1112"
         d="m -416.06186,365.17899 c -1.21919,-14.2833 -1.77781,-26.40853 -1.24138,-26.94496 0.53644,-0.53644 16.46008,-1.6135 35.38587,-2.39347 32.31503,-1.33176 47.87648,-3.68846 52.31053,-7.92213 1.13966,-1.08815 -15.46782,-1.81414 -41.5,-1.81414 h -43.4 v -22 -22 h 51 51 v -5 -5 h -53 -53 v -25 -25 h 83 83 l -0.002,28.5 c -0.002,36.83843 -3.00385,67.85891 -8.19161,84.65492 -3.31916,10.74618 -6.0641,15.23498 -13.92566,22.77257 -23.04203,22.09249 -53.34881,30.05096 -124.05021,32.57524 l -15.16915,0.54159 z"
         style="fill:none;fill-opacity:0;stroke:none;stroke-width:2;stroke-miterlimit:4;stroke-dasharray:none;stroke-opacity:1" />
      <path
         transform="scale(0.26458333)"
         inkscape:connector-curvature="0"
         id="path1114"
         d="m -414.34679,390.10748 c -0.005,-1.65361 -3.86688,-43.33572 -4.61818,-49.85103 l -0.42807,-3.71231 14.36979,-0.0156 c 29.32096,-0.0317 52.23602,-1.77858 64.50978,-4.91768 6.4594,-1.65204 12.55345,-4.20896 12.03413,-5.04924 -0.21614,-0.34972 -19.33132,-0.62413 -43.47752,-0.62413 h -43.09178 V 304.1097 282.28191 l 2.65165,-0.43829 c 1.45841,-0.24106 13.97529,-0.44179 27.81529,-0.44607 13.84,-0.004 35.71611,-0.21835 48.61359,-0.4757 l 23.44995,-0.46792 v -4.19203 -4.19203 l -53.74025,0.24053 -53.74025,0.24053 1.4e-4,-25.27907 1.3e-4,-25.27906 h 84.14571 84.14571 l -0.0209,11.13693 c -0.0424,22.60425 -1.37402,61.65034 -2.45037,71.85118 -3.24889,30.79052 -9.5039,46.31772 -22.7768,56.54015 -2.10934,1.62457 -5.80324,4.4609 -8.20865,6.30298 -15.48078,11.85521 -39.3921,18.5034 -76.85191,21.36753 -13.24138,1.01242 -42.54298,2.50685 -49.15238,2.50685 -2.8181,0 -3.17411,-0.17818 -3.17878,-1.59099 z"
         style="fill:none;fill-opacity:0;stroke:none;stroke-width:0.70710677;stroke-miterlimit:4;stroke-dasharray:none;stroke-opacity:1" />
      <path
         transform="scale(0.26458333)"
         inkscape:connector-curvature="0"
         id="path1116"
         d="m -414.34679,390.10748 c -0.005,-1.65361 -3.86688,-43.33572 -4.61818,-49.85103 l -0.42807,-3.71231 14.36979,-0.0156 c 29.32096,-0.0317 52.23602,-1.77858 64.50978,-4.91768 6.4594,-1.65204 12.55345,-4.20896 12.03413,-5.04924 -0.21614,-0.34972 -19.33132,-0.62413 -43.47752,-0.62413 h -43.09178 V 304.1097 282.28191 l 2.65165,-0.43829 c 1.45841,-0.24106 13.97529,-0.44179 27.81529,-0.44607 13.84,-0.004 35.71611,-0.21835 48.61359,-0.4757 l 23.44995,-0.46792 v -4.19203 -4.19203 l -53.74025,0.24053 -53.74025,0.24053 1.4e-4,-25.27907 1.3e-4,-25.27906 h 84.14571 84.14571 l -0.0209,11.13693 c -0.0424,22.60425 -1.37402,61.65034 -2.45037,71.85118 -3.24889,30.79052 -9.5039,46.31772 -22.7768,56.54015 -2.10934,1.62457 -5.80324,4.4609 -8.20865,6.30298 -15.48078,11.85521 -39.3921,18.5034 -76.85191,21.36753 -13.24138,1.01242 -42.54298,2.50685 -49.15238,2.50685 -2.8181,0 -3.17411,-0.17818 -3.17878,-1.59099 z"
         style="fill:#0a1edc;fill-opacity:1;stroke:none;stroke-width:0.70710677;stroke-miterlimit:4;stroke-dasharray:none;stroke-opacity:1" />
      <path
         transform="scale(0.26458333)"
         inkscape:connector-curvature="0"
         id="path1118"
         d="m -142.10542,392.00094 c -1.36118,-0.15352 -5.81596,-0.6384 -9.8995,-1.07753 -8.14434,-0.87583 -18.69123,-3.3095 -24.74873,-5.71073 -11.0515,-4.38088 -18.50054,-13.35833 -22.01805,-26.53576 -1.09897,-4.117 -1.56518,-8.51936 -1.83841,-17.35981 l -0.36605,-11.84403 h -10.86972 -10.86971 v -25.1023 -25.10229 h 11.3137 11.31371 v -4.59619 -4.59619 h -10.96015 -10.96016 v -23.68808 -23.68808 h 84.14571 84.145705 v 23.68808 23.68808 h -43.84062 -43.840625 v 4.94974 4.94975 h 43.487072 43.487067 v 24.39518 24.39519 h -43.840621 c -29.875418,0 -43.840618,0.23422 -43.840618,0.73528 0,2.14443 2.9976,6.26025 5.44481,7.47592 2.40373,1.19406 4.8109,1.36063 22.83946,1.58034 21.211025,0.25849 47.160281,-0.79484 57.275648,-2.32493 3.305724,-0.50004 6.249056,-0.77481 6.540738,-0.61062 0.291681,0.16419 0.53033,12.21219 0.53033,26.77331 v 26.47477 l -6.187184,0.006 c -3.402952,0.004 -14.778532,0.65412 -25.279068,1.44544 -17.450108,1.31504 -55.202134,2.35121 -61.164734,1.67878 z"
         style="fill:#0a1edc;fill-opacity:1;stroke:none;stroke-width:0.70710677;stroke-miterlimit:4;stroke-dasharray:none;stroke-opacity:1" />
      <path
         transform="scale(0.26458333)"
         inkscape:connector-curvature="0"
         id="path1120"
         d="M 43.510107,390.18684 C 31.465396,388.81445 21.368164,387.20634 16.73629,385.92278 9.6768023,383.9665 1.6952016,379.60984 -4.4758897,374.34437 c -6.5057823,-5.55103 -8.5592083,-8.19031 -10.5094603,-13.50788 -1.384404,-3.77472 -1.544983,-5.88582 -1.820881,-23.93879 -0.16642,-10.88945 -0.06888,-41.19781 0.216747,-67.35192 l 0.51933,-47.55293 H 1.7616647 c 9.8075003,0 25.0426973,0.20985 33.8559943,0.46634 l 16.024176,0.46635 v 10.49381 c 0,9.5245 0.114302,10.49337 1.237437,10.48908 0.68059,-0.003 19.028491,-3.5043 40.77312,-7.78155 21.744618,-4.27725 39.717248,-7.59525 39.939178,-7.37333 0.38986,0.38987 12.82903,58.50782 12.57472,58.75134 -0.0692,0.0662 -21.09696,4.12347 -46.728505,9.01615 -25.631539,4.89267 -46.68488,8.97861 -46.78519,9.07986 -0.632731,0.63865 -0.45644,15.26348 0.198358,16.45547 2.847038,5.18276 9.177892,6.55754 34.853328,7.56862 22.369499,0.8809 33.250129,0.33692 50.027809,-2.50114 l 9.36916,-1.58486 v 31.93863 31.93863 l -19.26866,0.41885 c -34.199862,0.7434 -79.236306,0.93127 -84.322483,0.35174 z"
         style="fill:#0a1edc;fill-opacity:1;stroke:none;stroke-width:0.70710677;stroke-miterlimit:4;stroke-dasharray:none;stroke-opacity:1" />
      <path
         transform="scale(0.26458333)"
         inkscape:connector-curvature="0"
         id="path1122"
         d="m 189.52766,246.74158 v -24.74873 l 56.39176,0.0806 c 31.01547,0.0443 60.50178,0.28298 65.52514,0.53033 l 9.13337,0.44972 -6.08815,1.97537 -6.08815,1.97537 2.35725,5.44925 c 1.29649,2.99708 4.6565,10.77907 7.46669,17.29329 2.81019,6.51422 5.4835,11.84403 5.94068,11.84403 0.45718,0 5.10041,-1.43189 10.3183,-3.18198 5.21788,-1.75008 9.73895,-3.18198 10.04682,-3.18198 0.30788,0 0.55978,3.65928 0.55978,8.13173 v 8.13173 H 267.3094 189.52766 Z"
         style="fill:#0a1edc;fill-opacity:1;stroke:none;stroke-width:0.70710677;stroke-miterlimit:4;stroke-dasharray:none;stroke-opacity:1" />
      <path
         transform="scale(0.26458333)"
         inkscape:connector-curvature="0"
         id="path1124"
         d="m 247.15686,388.73171 c -16.33417,-1.55565 -29.81605,-2.9414 -29.95973,-3.07945 -0.14369,-0.13804 1.05852,-2.34068 2.67156,-4.89476 4.24676,-6.72427 9.72034,-17.79325 11.7509,-23.76336 1.58361,-4.65602 3.78623,-15.06451 4.8887,-23.10165 l 0.41223,-3.0052 H 208.6279 180.33527 v -24.39518 -24.39519 h 86.62058 86.62058 v 24.39519 24.39518 h -25.40571 -25.40571 l -0.81496,4.06586 c -2.70493,13.49514 -8.83958,34.01191 -15.06437,50.38136 l -2.28557,6.01041 -3.87239,0.10763 c -2.1298,0.0592 -17.23669,-1.16518 -33.57086,-2.72084 z"
         style="fill:#0a1edc;fill-opacity:1;stroke:none;stroke-width:0.70710677;stroke-miterlimit:4;stroke-dasharray:none;stroke-opacity:1" />
      <path
         transform="scale(0.26458333)"
         inkscape:connector-curvature="0"
         id="path1126"
         d="m 322.93154,242.59805 c -2.59075,-5.77912 -4.71045,-10.68524 -4.71045,-10.9025 0,-0.80792 9.32784,-3.48613 9.95554,-2.85844 0.35059,0.3506 2.69625,5.23847 5.21257,10.86195 l 4.57513,10.2245 -4.70606,1.59099 c -2.58832,0.87505 -4.91085,1.59099 -5.16116,1.59099 -0.25032,0 -2.57482,-4.72837 -5.16557,-10.50749 z"
         style="fill:#0a1edc;fill-opacity:1;stroke:none;stroke-width:0.70710677;stroke-miterlimit:4;stroke-dasharray:none;stroke-opacity:1" />
      <path
         transform="scale(0.26458333)"
         inkscape:connector-curvature="0"
         id="path1128"
         d="m 340.84851,236.11297 c -2.52791,-5.43406 -4.68867,-10.30276 -4.80169,-10.81934 -0.137,-0.62617 1.55439,-1.40886 5.07427,-2.34812 l 5.27976,-1.40888 4.65361,10.61742 c 2.55949,5.83958 4.41264,10.84541 4.11812,11.12406 -0.60338,0.57088 -7.80799,2.76757 -8.97234,2.73567 -0.41554,-0.0114 -2.82383,-4.46675 -5.35173,-9.90081 z"
         style="fill:#0a1edc;fill-opacity:1;stroke:none;stroke-width:0.70710677;stroke-miterlimit:4;stroke-dasharray:none;stroke-opacity:1" />
      <path
         transform="scale(0.26458333)"
         inkscape:connector-curvature="0"
         id="path1130"
         d="m 387.51756,339.72612 v -52.67945 h -2.40867 -2.40867 l 3.12216,-11.84404 c 3.93135,-14.91371 8.44959,-37.10614 9.57352,-47.0226 l 0.86154,-7.6014 h 22.86714 22.86714 l -0.44368,1.76777 -0.44368,1.76777 h 55.23098 55.23099 v 48.43681 48.43681 h -55.86144 -55.86143 v -39.59798 c 0,-32.3864 -0.1705,-39.59797 -0.93617,-39.59797 -0.68069,0 -1.46707,3.85662 -2.88165,14.13255 -1.07002,7.77291 -2.55375,17.0802 -3.29719,20.68288 -1.16078,5.62512 -1.35301,9.67139 -1.36099,28.6474 l -0.009,22.09709 h 61.87184 61.87184 v 14.4918 14.49181 l -61.69506,0.18066 -61.69507,0.18066 -0.18892,17.85444 -0.18892,17.85445 H 409.426 387.51784 Z m 121.62236,-46.31549 v -3.53553 h -14.49569 -14.49569 v 3.53553 3.53553 h 14.49569 14.49569 z m 0,-19.34932 v -3.08587 l -3.28067,-0.44967 c -1.80437,-0.24731 -8.32743,-0.44966 -14.49569,-0.44966 h -11.21502 v 3.53553 3.53553 h 14.49569 14.49569 z m -0.13803,-19.01122 0.21552,-3.35876 h -14.53444 -14.53443 v 3.06413 c 0,1.68527 0.21866,3.28279 0.48591,3.55004 0.26725,0.26725 6.71076,0.39983 14.31891,0.29463 l 13.83301,-0.19129 z"
         style="fill:#0a1edc;fill-opacity:1;stroke:none;stroke-width:0.70710677;stroke-miterlimit:4;stroke-dasharray:none;stroke-opacity:1" />
      <path
         transform="scale(0.26458333)"
         inkscape:connector-curvature="0"
         id="path1132"
         d="m 458.93534,390.46502 c -12.63953,-1.36697 -23.05138,-2.54109 -23.13745,-2.60914 -0.8511,-0.67305 3.80892,-26.56205 4.99458,-27.74772 0.0997,-0.0997 11.54124,0.34902 25.42556,0.99724 22.75652,1.06242 25.24422,1.29624 25.24422,2.37268 0,0.65676 -0.46404,3.69529 -1.0312,6.7523 -0.97283,5.24357 -3.21144,20.71824 -3.21144,22.19951 0,0.98721 -2.76278,0.79528 -28.28427,-1.96487 z"
         style="fill:#0a1edc;fill-opacity:1;stroke:none;stroke-width:0.70710677;stroke-miterlimit:4;stroke-dasharray:none;stroke-opacity:1" />
      <path
         transform="scale(0.26458333)"
         inkscape:connector-curvature="0"
         id="path1134"
         d="m 501.36175,392.57757 c 0,-0.29432 -0.78289,-4.03314 -1.73975,-8.30851 -1.69169,-7.55865 -3.39669,-20.87722 -2.75683,-21.53489 0.38137,-0.39198 50.7034,-2.84167 51.06209,-2.48572 0.13751,0.13646 0.69778,2.82831 1.24504,5.98188 0.54726,3.15357 2.4435,9.72972 4.21387,14.61367 1.77036,4.88395 3.11929,8.96746 2.9976,9.07445 -0.26301,0.23126 -49.39746,3.21651 -52.72393,3.20334 -1.26395,-0.005 -2.29809,-0.24991 -2.29809,-0.54422 z"
         style="fill:#0a1edc;fill-opacity:1;stroke:none;stroke-width:0.70710677;stroke-miterlimit:4;stroke-dasharray:none;stroke-opacity:1" />
      <path
         transform="scale(0.26458333)"
         inkscape:connector-curvature="0"
         id="path1136"
         d="m 643.65361,385.32433 v -7.78835 l -4.29816,2.1697 c -9.76047,4.92707 -27.75445,9.59934 -44.00627,11.42654 -6.19066,0.69603 -7.7527,0.68662 -8.20759,-0.0494 -0.309,-0.49996 -0.77563,-7.00948 -1.03695,-14.4656 -0.26133,-7.45611 -0.66463,-15.81716 -0.89622,-18.58009 l -0.42107,-5.02352 10.87158,-0.51044 c 16.19688,-0.76049 26.15605,-2.93023 31.02412,-6.75903 l 1.76776,-1.39038 -21.03642,-0.0157 -21.03643,-0.0158 v -14.84131 -14.84132 l 28.8146,-0.1847 28.8146,-0.18471 v -2.82843 -2.82842 l -6.54074,-0.20332 -6.54073,-0.20331 v -41.69276 -41.69277 h 6.38781 6.3878 l 1.46021,-2.47487 1.46022,-2.47488 h 23.26468 c 12.79557,0 23.26467,0.13839 23.26467,0.30753 0,0.16913 -0.31032,1.12373 -0.6896,2.12132 l -0.68961,1.8138 h 9.52844 9.52844 v 41.7193 41.7193 h -6.0104 -6.01041 v 3.38501 3.38502 l 28.63782,-0.28917 28.63783,-0.28917 v 15.28893 15.28893 l -21.38998,0.0157 -21.38998,0.0157 1.76776,1.39038 c 4.71383,3.7075 16.0472,6.10008 32.36268,6.83207 8.76503,0.39324 10.04658,0.60048 9.76696,1.57945 -0.17701,0.61975 -0.5417,8.96999 -0.81042,18.55609 -0.26873,9.5861 -0.71571,17.79676 -0.9933,18.24591 -0.37807,0.61174 -2.706,0.53663 -9.27838,-0.29937 -18.98975,-2.41546 -30.81365,-5.53014 -41.62083,-10.96389 l -5.69016,-2.86095 v 8.13962 8.13962 h -27.57717 -27.57716 v -7.78836 z m 33.94112,-102.60277 c 0,-4.14023 -0.068,-4.30689 -1.59099,-3.89875 -0.87504,0.23451 -3.89792,0.43072 -6.71751,0.43603 l -5.12652,0.01 v 3.88909 3.88909 h 6.71751 6.71751 z m 0.70711,-27.14114 v -4.5962 h -7.07107 -7.07106 v 4.5962 4.59619 h 7.07106 7.07107 z"
         style="fill:#0a1edc;fill-opacity:1;stroke:none;stroke-width:0.70710677;stroke-miterlimit:4;stroke-dasharray:none;stroke-opacity:1" />
      <path
         transform="scale(0.26458333)"
         inkscape:connector-curvature="0"
         id="path1138"
         d="m 589.91349,255.39931 c 0,-7.58152 -2.23435,-25.03116 -3.92135,-30.62462 -0.28854,-0.95669 2.16697,-1.33305 18.05877,-2.76789 10.11599,-0.91336 18.49936,-1.5288 18.62971,-1.36763 0.31107,0.38461 5.28471,37.00104 5.06195,37.26656 -0.23521,0.28035 -30.3101,2.25578 -34.47032,2.26414 l -3.35876,0.007 z"
         style="fill:#0a1edc;fill-opacity:1;stroke:none;stroke-width:0.70710677;stroke-miterlimit:4;stroke-dasharray:none;stroke-opacity:1" />
      <path
         transform="scale(0.26458333)"
         inkscape:connector-curvature="0"
         id="path1140"
         d="m 616.43,309.97573 c -4.54852,-0.98496 -14.24641,-2.07159 -25.11166,-2.81369 l -6.72687,-0.45946 2.26959,-9.0472 c 2.5383,-10.11837 4.46665,-22.64597 4.46665,-29.0178 v -4.21833 l 2.65165,0.0149 c 5.68534,0.032 32.07023,2.06846 32.82245,2.53336 2.42787,1.5005 -2.77819,43.29248 -5.45614,43.79951 -0.37017,0.0701 -2.58222,-0.286 -4.91567,-0.79131 z"
         style="fill:#0a1edc;fill-opacity:1;stroke:none;stroke-width:0.70710677;stroke-miterlimit:4;stroke-dasharray:none;stroke-opacity:1" />
      <path
         transform="scale(0.26458333)"
         inkscape:connector-curvature="0"
         id="path1142"
         d="m 718.27506,303.51299 c -0.58191,-8.60932 -2.34016,-27.19934 -3.09353,-32.70813 l -0.56435,-4.12662 4.29297,-0.43753 c 9.77295,-0.99604 21.59855,-1.79977 26.63524,-1.81027 l 5.37171,-0.0112 1.84409,7.6014 c 1.01426,4.18077 2.18965,10.14698 2.61199,13.25825 0.9444,6.95716 2.05318,21.10588 1.68555,21.50865 -0.14832,0.1625 -2.09894,0.41144 -4.33472,0.55322 -10.76257,0.68247 -31.7722,2.44221 -32.8117,2.74827 -1.01076,0.29759 -1.23298,-0.59495 -1.63725,-6.57605 z"
         style="fill:#0a1edc;fill-opacity:1;stroke:none;stroke-width:0.70710677;stroke-miterlimit:4;stroke-dasharray:none;stroke-opacity:1" />
      <path
         transform="scale(0.26458333)"
         inkscape:connector-curvature="0"
         id="path1144"
         d="m 745.41806,260.6123 c -0.16205,-0.14928 -7.13589,-0.81766 -15.49742,-1.48529 -8.36154,-0.66764 -15.24954,-1.26144 -15.30666,-1.31958 -0.0571,-0.0581 0.48346,-3.12857 1.20132,-6.82321 1.35688,-6.98363 2.44475,-15.49567 3.19447,-24.99529 l 0.438,-5.54985 6.47387,0.47576 c 8.66125,0.6365 25.60383,2.36895 28.52305,2.9166 l 2.346,0.44011 -0.0218,4.69428 c -0.0264,5.67132 -0.8775,12.52996 -2.92982,23.60938 l -1.53905,8.30851 h -3.29365 c -1.81151,0 -3.42624,-0.12214 -3.58828,-0.27142 z"
         style="fill:#0a1edc;fill-opacity:1;stroke:none;stroke-width:0.70710677;stroke-miterlimit:4;stroke-dasharray:none;stroke-opacity:1" />
      <path
         transform="scale(0.26458333)"
         inkscape:connector-curvature="0"
         id="path1146"
         d="m 785.07496,285.98601 v -15.2028 h 3.58319 c 3.07864,0 3.53237,-0.17424 3.22229,-1.23743 -0.1985,-0.68059 -0.74706,-3.269 -1.21903,-5.75201 -0.63658,-3.34899 -1.19467,-4.60258 -2.16163,-4.85544 -1.21971,-0.31896 -1.30349,-1.4037 -1.30349,-16.87541 v -16.53454 h 9.89949 9.89949 v -2.47487 -2.47488 h 24.39519 24.39518 v 2.47488 2.47487 h 9.19239 9.19239 v 16.61701 16.61701 h -1.71763 c -1.52499,0 -1.80921,0.45604 -2.53401,4.06586 -0.449,2.23623 -0.98335,4.78181 -1.18745,5.65686 -0.34769,1.49071 -0.14341,1.59099 3.24111,1.59099 h 3.61219 v 15.55635 15.55634 H 830.3298 785.07496 Z m 49.8119,-19.97577 c 0.26355,-2.62513 0.64026,-5.32982 0.83714,-6.01041 0.31875,-1.10192 -0.23485,-1.23743 -5.05515,-1.23743 h -5.41311 l 0.37825,2.65165 c 0.20804,1.45841 0.5737,4.16309 0.81259,6.01041 l 0.43434,3.35875 h 3.76338 3.76339 z"
         style="fill:#0a1edc;fill-opacity:1;stroke:none;stroke-width:0.70710677;stroke-miterlimit:4;stroke-dasharray:none;stroke-opacity:1" />
      <path
         transform="scale(0.26458333)"
         inkscape:connector-curvature="0"
         id="path1148"
         d="m 788.6105,351.1532 v -41.95948 l 18.14592,-0.46692 c 9.98026,-0.25681 29.23125,-0.46693 42.77996,-0.46693 h 24.63404 v 40.65864 40.65864 h -23.94358 -23.94357 l 0.33793,1.76777 0.33793,1.76777 H 807.78481 788.6105 Z m 48.08326,-3.1775 c 0,-4.60208 -0.13135,-8.50001 -0.2919,-8.66205 -0.16054,-0.16205 -2.38793,-0.18793 -4.94974,-0.0575 l -4.65786,0.23711 v 8.42495 8.42494 h 4.94975 4.94975 z"
         style="fill:#0a1edc;fill-opacity:1;stroke:none;stroke-width:0.70710677;stroke-miterlimit:4;stroke-dasharray:none;stroke-opacity:1" />
      <path
         transform="scale(0.26458333)"
         inkscape:connector-curvature="0"
         id="path1150"
         d="m 881.24149,308.61343 v -84.49926 l 21.03642,-0.002 c 11.57004,-8.4e-4 28.91183,-0.21089 38.53732,-0.46677 l 17.5009,-0.46525 v 19.03829 19.03829 l -4.67385,15.89994 c -2.57061,8.74497 -4.67623,16.53634 -4.67915,17.31416 -0.003,0.77782 2.07916,8.57367 4.62685,17.32412 2.54769,8.75044 5.2897,19.34668 6.09336,23.54719 4.22903,22.1039 -1.49925,40.65538 -14.3022,46.31873 -4.14251,1.83243 -12.32437,3.67318 -16.32672,3.67318 -1.74523,0 -3.98935,0.31032 -4.98694,0.68961 -1.57815,0.60001 -1.8138,1.10528 -1.8138,3.88908 v 3.19949 h -20.5061 -20.50609 z m 40.86917,34.53618 c 3.0673,-1.93591 4.38341,-5.11445 4.3454,-10.49455 -0.0297,-4.19821 -0.70406,-6.86343 -4.44166,-17.55349 -2.42368,-6.93207 -4.71369,-12.58031 -5.08891,-12.55168 -1.11494,0.0851 -1.27467,41.18542 -0.16277,41.8846 1.03838,0.65296 3.03927,0.17223 5.34794,-1.28488 z m -3.81634,-54.51195 c 0.47664,-1.55794 6.78779,-29.60814 6.78779,-30.16864 0,-0.22755 -1.90919,-0.41373 -4.24264,-0.41373 h -4.24264 v 15.9099 c 0,9.3688 0.27112,15.90991 0.65945,15.90991 0.3627,0 0.82982,-0.55685 1.03804,-1.23744 z"
         style="fill:#0a1edc;fill-opacity:1;stroke:none;stroke-width:0.70710677;stroke-miterlimit:4;stroke-dasharray:none;stroke-opacity:1" />
      <path
         transform="scale(0.26458333)"
         inkscape:connector-curvature="0"
         id="path1152"
         d="m 992.25725,308.61343 v -84.49926 h 44.78495 c 24.6317,0 61.5427,-0.21114 82.0244,-0.4692 l 37.2394,-0.46919 v 84.96845 84.96846 h -28.6378 -28.6378 v -3.88909 -3.88909 h -24.3952 -24.3952 v 3.88909 3.88909 h -28.9914 -28.99135 z m 106.06605,24.04163 v -5.3033 h -24.0417 -24.0416 v 5.3033 5.3033 h 24.0416 24.0417 z m 0,-55.50789 v -5.65685 h -24.0417 -24.0416 v 5.25412 c 0,4.88652 0.1113,5.27556 1.591,5.56056 0.875,0.16854 11.6938,0.34977 24.0416,0.40273 l 22.4507,0.0963 z"
         style="fill:#0a1edc;fill-opacity:1;stroke:none;stroke-width:0.70710677;stroke-miterlimit:4;stroke-dasharray:none;stroke-opacity:1" />
      <path
         transform="scale(0.26458333)"
         inkscape:connector-curvature="0"
         id="path1154"
         d="m 1209.1604,387.45583 v -5.65685 h -9.1924 -9.1924 v -16.26346 -16.26345 h 8.8389 8.8388 v -4.24265 -4.24264 h -9.5459 -9.546 v -16.26345 -16.26346 h 4.2426 c 2.3335,0 4.2315,-0.0795 4.2178,-0.17677 -0.014,-0.0972 -0.6014,-2.24507 -1.3061,-4.77298 l -1.2813,-4.59619 -3.29,-0.21552 -3.2901,-0.21552 v -16.57827 -16.57826 h 9.8995 9.8995 v -4.24264 -4.24264 h -8.8388 -8.8389 v -15.90991 -15.9099 h 8.8389 8.8388 v -2.12132 -2.12132 h 22.6274 22.6274 v 1.76777 1.76777 h 8.1318 8.1317 v 16.26345 16.26346 h -8.4853 -8.4853 v 3.88908 3.88909 h 8.8389 8.8388 v 16.97056 16.97057 h -2.0712 c -1.9574,0 -2.1151,0.22336 -2.8702,4.06586 -0.4394,2.23623 -0.9226,4.44613 -1.0737,4.91091 -0.1769,0.54424 0.7818,0.92179 2.6934,1.06066 l 2.9681,0.21562 0.1901,16.08667 0.19,16.08668 h -8.8521 -8.8521 v 3.88909 3.88909 h 8.1317 8.1318 v 16.61701 16.61701 h -8.1318 -8.1317 v 5.65685 5.65686 h -21.9203 -21.9203 z m 25.7215,-81.1405 c 0.1985,-0.68059 0.5742,-2.74888 0.835,-4.5962 l 0.4741,-3.35875 h -5.4312 c -4.8387,0 -5.3919,0.135 -5.0703,1.23743 0.1985,0.68059 0.5743,2.74888 0.835,4.5962 l 0.4741,3.35876 h 3.7612 c 2.9731,0 3.8368,-0.25926 4.1221,-1.23744 z"
         style="fill:#0a1edc;fill-opacity:1;stroke:none;stroke-width:0.70710677;stroke-miterlimit:4;stroke-dasharray:none;stroke-opacity:1" />
      <path
         transform="scale(0.26458333)"
         inkscape:connector-curvature="0"
         id="path1156"
         d="m 1277.0426,308.36468 v -84.74801 l 5.8337,-0.45412 c 3.2085,-0.24977 19.5957,-0.45603 36.416,-0.45836 l 30.5823,-0.004 v 31.72445 c 0,30.73872 -0.044,31.78076 -1.4256,33.53689 l -1.4257,1.81244 1.6025,0.22746 1.6024,0.22746 0.1815,50.74265 0.1814,50.74264 -5.9272,-3.94451 -5.9273,-3.94451 -4.7871,3.21056 c -5.0099,3.35995 -10.6581,5.89262 -11.4269,5.12385 -0.2477,-0.24774 -1.0093,-5.00666 -1.6924,-10.57539 -0.6831,-5.56873 -1.9052,-13.82928 -2.7158,-18.3568 -0.8106,-4.52751 -1.4738,-8.50156 -1.4738,-8.83123 0,-0.32967 1.4658,-1.31153 3.2573,-2.18191 2.4374,-1.18415 3.1589,-1.88712 2.8666,-2.79255 -1.1173,-3.46026 -4.7641,-17.46342 -5.7935,-22.24647 -0.6487,-3.01404 -1.4657,-5.48008 -1.8156,-5.48008 -0.3683,0 -0.6361,15.03068 -0.6361,35.70889 v 35.7089 h -18.7383 -18.7384 z m 63.7553,23.52495 c 0.6491,-3.07919 1.2067,-7.10998 1.2393,-8.95729 l 0.059,-3.35876 h -3.7713 c -2.0741,0 -3.9345,0.1633 -4.1341,0.36289 -1.187,1.18698 3.2135,18.28948 4.588,17.83132 0.4614,-0.15379 1.3698,-2.79896 2.0188,-5.87816 z m -18.0536,-43.95908 c -0.6056,-2.76969 -3.0378,-16.87282 -3.5975,-20.85965 -0.3948,-2.81208 -0.2861,-3.35875 0.6676,-3.35875 2.0803,0 5.3556,-2.15971 6.7544,-4.45375 2.3355,-3.83037 2.0694,-4.03154 -5.332,-4.03154 h -6.7175 v 17.32412 17.32412 h 4.3251 4.3251 z"
         style="fill:#0a1edc;fill-opacity:1;stroke:none;stroke-width:0.70710677;stroke-miterlimit:4;stroke-dasharray:none;stroke-opacity:1" />
    </g>
  </g>
</svg>
